<?xml version="1.0" encoding="UTF-8" standalone="no"?>
<!DOCTYPE svg PUBLIC "-//W3C//DTD SVG 1.1//EN" "http://www.w3.org/Graphics/SVG/1.1/DTD/svg11.dtd">
<svg version="1.1" xmlns="http://www.w3.org/2000/svg" xmlns:xlink="http://www.w3.org/1999/xlink" preserveAspectRatio="xMidYMid meet" viewBox="0 0 640 640" width="640" height="640"><defs><path d="M571.94 292.8C571.8 287.32 567.32 282.95 561.84 282.95C540.35 282.95 368.44 282.95 346.95 282.95C341.37 282.95 336.84 287.47 336.84 293.05C336.84 301.14 336.84 365.81 336.84 373.9C336.84 379.48 341.37 384 346.95 384C358 384 446.4 384 457.45 384C432.79 436.93 379.25 471.58 320 471.58C236.7 471.58 168.88 404.04 168.43 320.85C167.98 239.64 232.49 171.89 313.63 168.55C320.69 168.26 327.66 168.46 334.54 169.11C337.49 169.38 340.41 168.32 342.51 166.22C342.56 166.16 342.62 166.1 342.68 166.04C348.63 160.09 345.04 149.8 336.66 149C331.16 148.48 325.61 148.21 320 148.21C271.6 148.21 227.82 168.34 196.56 200.65C191.96 196.7 155.11 165.1 150.51 161.15C192.94 115.9 253.22 87.58 320 87.58C398.32 87.58 469.75 125.87 513.07 190.54C507.83 193.63 465.94 218.32 460.71 221.41C443.43 196.72 420.49 177.47 394.19 164.92C390.38 163.1 385.83 163.93 382.85 166.91C382.84 166.92 382.73 167.03 382.72 167.04C377.86 171.89 379.19 180.16 385.38 183.11C411.16 195.4 433.28 214.98 448.97 240.31C451.86 244.98 457.95 246.49 462.69 243.7C469.66 239.59 525.39 206.74 532.36 202.63C534.69 201.26 536.37 199.01 537.03 196.38C537.69 193.76 537.26 190.98 535.85 188.67C513.7 152.33 482.49 121.93 445.59 100.75C407.55 78.91 364.12 67.37 320 67.37C180.7 67.37 67.37 180.7 67.37 320C67.37 405.65 110.22 481.47 175.61 527.18C179.56 529.95 184.95 529.43 188.37 526.01C188.38 526 188.49 525.89 188.5 525.88C192.9 521.47 192.25 514.16 187.15 510.6C163.94 494.37 143.82 474.02 127.86 450.62C133.02 447.43 174.32 421.9 179.49 418.71C210.6 462.88 261.99 491.79 320 491.79C367.59 491.79 411.92 472.06 443.66 439.22C448.26 443.16 485.07 474.73 489.67 478.67C447.23 524.03 386.87 552.42 320 552.42C288.09 552.42 257.67 545.94 229.96 534.25C226.22 532.67 221.89 533.52 219.02 536.39C219 536.41 218.88 536.53 218.87 536.54C213.82 541.59 215.54 550.1 222.11 552.88C252.23 565.59 285.31 572.63 320 572.63C459.3 572.63 572.63 459.3 572.63 320C572.63 319.91 572.63 319.83 572.63 319.74C572.49 314.35 572.01 295.49 571.94 292.8ZM87.58 320C87.58 265.88 106.18 216.01 137.32 176.47C141.93 180.42 178.78 212.03 183.39 215.98C161.33 244.87 148.21 280.93 148.21 320C148.21 349.49 155.68 377.27 168.83 401.54C165.39 403.67 148.18 414.3 117.21 433.44C97.46 385.26 87.58 347.45 87.58 320ZM456.83 423.89C467.42 409.98 475.98 394.32 482.01 377.27C483.1 374.17 482.63 370.74 480.73 368.06C478.84 365.39 475.76 363.79 472.48 363.79C464.79 363.79 426.31 363.79 357.05 363.79L357.05 303.16L551.99 303.16C552.25 313.34 552.39 319 552.42 320.13C552.39 374.12 533.86 423.86 502.84 463.34C493.64 455.45 461.43 427.83 456.83 423.89Z" id="e8orTHzz0U"></path></defs><g><g><g><use xlink:href="#e8orTHzz0U" opacity="1" fill="#ffffff" fill-opacity="1"></use><g><use xlink:href="#e8orTHzz0U" opacity="1" fill-opacity="0" stroke="#000000" stroke-width="1" stroke-opacity="0"></use></g></g></g></g></svg>