<?xml version="1.0" encoding="UTF-8" standalone="no"?>
<!DOCTYPE svg PUBLIC "-//W3C//DTD SVG 1.1//EN" "http://www.w3.org/Graphics/SVG/1.1/DTD/svg11.dtd">
<svg version="1.1" xmlns="http://www.w3.org/2000/svg" xmlns:xlink="http://www.w3.org/1999/xlink" preserveAspectRatio="xMidYMid meet" viewBox="0 0 640 640" width="640" height="640"><defs><path d="M376 229.77C366.13 195.39 346.74 164.03 319.59 139.72C278.43 102.87 225.28 85.95 169.9 92.07C81.09 101.9 10.06 173.59 1.01 262.54C-3.93 311.1 9.35 359.1 38.4 397.71C66.24 434.71 106.18 460.29 151.15 469.98C155.88 474.71 193.73 512.56 198.46 517.29C202.43 521.26 207.7 523.37 213.08 523.36C215.75 523.36 218.45 522.84 221.03 521.78C228.79 518.56 233.81 511.05 233.81 502.64C233.81 499.33 233.81 472.84 233.81 469.52C241.59 467.79 249.17 465.58 256.53 462.95C256.53 463.08 256.53 464.13 256.53 464.27C256.53 487.47 275.41 506.35 298.61 506.35C303.33 506.35 326.88 506.35 369.29 506.35C391.88 528.94 404.43 541.49 406.94 544C410.3 547.37 414.77 549.15 419.33 549.15C421.6 549.15 423.88 548.71 426.07 547.81C432.65 545.08 436.91 538.72 436.91 531.59C436.91 529.91 436.91 521.49 436.91 506.35C533.51 506.35 587.18 506.35 597.91 506.35C621.12 506.35 640 487.47 640 464.27C640 445.02 640 291.1 640 271.86C640 248.66 621.12 229.77 597.91 229.77C553.53 229.77 398.19 229.77 376 229.77ZM213.77 461.32C213.77 465.45 213.77 498.51 213.77 502.64C213.77 502.88 213.77 503.09 213.36 503.26C212.94 503.43 212.8 503.29 212.63 503.12C207.69 498.18 168.15 458.64 163.2 453.69C161.8 452.29 160.02 451.34 158.07 450.95C116.72 442.73 79.9 419.55 54.41 385.67C28.41 351.1 16.52 308.09 20.95 264.57C24.85 226.21 42.22 189.73 69.85 161.83C97.48 133.93 133.8 116.23 172.1 112C178.77 111.26 185.39 110.89 191.96 110.89C234.33 110.89 274.31 126.09 306.22 154.65C342.57 187.2 363.42 233.84 363.42 282.6C363.42 365.83 303.96 436.84 222.03 451.45C217.25 452.31 213.77 456.46 213.77 461.32ZM597.91 486.31C580.81 486.31 443.99 486.31 426.88 486.31C421.35 486.31 416.86 490.8 416.86 496.33C416.86 498.28 416.86 508.04 416.86 525.59C395.06 503.78 382.95 491.67 380.52 489.25C378.65 487.37 376.1 486.31 373.44 486.31C365.96 486.31 306.1 486.31 298.62 486.31C286.46 486.31 276.57 476.42 276.57 464.27C276.57 463.29 276.57 455.47 276.57 454.5C340.72 422.97 383.46 357.18 383.46 282.6C383.46 271.54 382.48 260.57 380.61 249.82C402.34 249.82 576.18 249.82 597.91 249.82C610.07 249.82 619.96 259.71 619.96 271.86C619.96 284.69 619.96 348.82 619.96 464.27C613.36 478.96 606.01 486.31 597.91 486.31Z" id="c1h4AmoK5T"></path><path d="M548.07 307.53C541.41 314.19 508.15 347.46 448.26 407.34C420.46 379.54 405.01 364.09 401.93 361C398.01 357.09 391.67 357.09 387.75 361C383.84 364.92 383.84 371.26 387.75 375.17C393.1 380.52 435.83 423.25 441.18 428.6C443.13 430.55 445.7 431.53 448.26 431.53C450.82 431.53 453.39 430.55 455.35 428.6C466.04 417.91 551.55 332.39 562.24 321.7C566.15 317.79 566.15 311.45 562.24 307.53C558.33 303.62 551.98 303.62 548.07 307.53Z" id="c31eSlhIN"></path><path d="M191.72 358.08C186.18 358.08 181.69 362.57 181.69 368.11C181.69 368.11 181.69 368.11 181.69 368.11C181.69 368.12 181.69 368.12 181.69 368.12C181.69 373.65 186.18 378.15 191.72 378.15C191.72 378.15 191.73 378.15 191.73 378.15C197.26 378.15 201.76 373.65 201.76 368.12C201.76 368.12 201.76 368.12 201.76 368.11C201.76 368.11 201.76 368.11 201.76 368.11C201.76 362.57 197.26 358.08 191.73 358.08C191.73 358.08 191.72 358.08 191.72 358.08Z" id="j1I4BUnRqL"></path><path d="M191.72 187.07C156.73 187.07 128.26 215.54 128.26 250.53C128.26 256.07 132.74 260.55 138.28 260.55C143.81 260.55 148.3 256.07 148.3 250.53C148.3 226.59 167.78 207.11 191.72 207.11C203.02 207.11 213.84 211.71 222.2 220.06C230.55 228.41 235.15 239.24 235.15 250.54C235.15 269.57 222.43 286.68 204.22 292.14C190.75 296.17 181.7 308.24 181.7 322.17C181.7 322.48 181.7 325.04 181.7 325.36C181.7 330.89 186.19 335.38 191.73 335.38C197.26 335.38 201.75 330.89 201.75 325.36C201.75 325.04 201.75 322.48 201.75 322.17C201.75 317.16 205.06 312.81 209.98 311.33C236.6 303.35 255.19 278.35 255.19 250.54C255.19 233.89 248.51 218.03 236.37 205.89C224.23 193.75 208.37 187.07 191.72 187.07Z" id="cAU0B6MLb"></path></defs><g><g><g><use xlink:href="#c1h4AmoK5T" opacity="1" fill="#ffffff" fill-opacity="1"></use><g><use xlink:href="#c1h4AmoK5T" opacity="1" fill-opacity="0" stroke="#000000" stroke-width="1" stroke-opacity="0"></use></g></g><g><use xlink:href="#c31eSlhIN" opacity="1" fill="#ffffff" fill-opacity="1"></use><g><use xlink:href="#c31eSlhIN" opacity="1" fill-opacity="0" stroke="#000000" stroke-width="1" stroke-opacity="0"></use></g></g><g><use xlink:href="#j1I4BUnRqL" opacity="1" fill="#ffffff" fill-opacity="1"></use><g><use xlink:href="#j1I4BUnRqL" opacity="1" fill-opacity="0" stroke="#000000" stroke-width="1" stroke-opacity="0"></use></g></g><g><use xlink:href="#cAU0B6MLb" opacity="1" fill="#ffffff" fill-opacity="1"></use><g><use xlink:href="#cAU0B6MLb" opacity="1" fill-opacity="0" stroke="#000000" stroke-width="1" stroke-opacity="0"></use></g></g></g></g></svg>
