<?xml version="1.0" encoding="iso-8859-1"?>
<!-- Generator: Adobe Illustrator 19.0.0, SVG Export Plug-In . SVG Version: 6.00 Build 0)  -->
<svg version="1.1" id="Layer_1" xmlns="http://www.w3.org/2000/svg" xmlns:xlink="http://www.w3.org/1999/xlink" x="0px" y="0px"
	 viewBox="0 0 512 512" style="enable-background:new 0 0 512 512;" xml:space="preserve" opacity="1" fill-opacity="0" stroke="#ffffff" stroke-width="2" stroke-opacity="0.8">
<g>
	<g>
		<path d="M458.103,255.794l-0.552-21.558c-0.112-4.383-3.697-7.878-8.081-7.878H277.558c-4.465,0-8.084,3.62-8.084,8.084v64.674
			c0,4.465,3.62,8.084,8.084,8.084l88.404,0.002c-19.728,42.342-62.559,70.061-109.961,70.061
			c-66.638,0-120.893-54.029-121.261-120.582c-0.359-64.967,51.254-119.17,116.167-121.84c5.641-0.232,11.224-0.077,16.721,0.443
			c2.363,0.223,4.699-0.631,6.377-2.309c0.046-0.046,0.094-0.094,0.14-0.14c4.762-4.762,1.888-12.993-4.816-13.634
			c-4.398-0.42-8.844-0.634-13.328-0.634c-38.72,0-73.746,16.102-98.75,41.954l-36.847-31.604
			C154.35,92.719,202.575,70.063,256,70.063c62.655,0,119.797,30.635,154.455,82.372l-41.889,24.69
			c-13.819-19.749-32.177-35.15-53.217-45.193c-3.046-1.454-6.684-0.792-9.07,1.594l-0.105,0.105
			c-3.884,3.884-2.825,10.493,2.133,12.857c20.618,9.829,38.319,25.498,50.868,45.762c2.313,3.736,7.187,4.938,10.978,2.708
			l55.733-32.851c1.865-1.099,3.211-2.901,3.737-5.001c0.526-2.101,0.188-4.323-0.94-6.172
			c-17.723-29.071-42.693-53.391-72.209-70.335C326.036,63.129,291.294,53.895,256,53.895C144.559,53.895,53.895,144.559,53.895,256
			c0,68.521,34.282,129.178,86.589,165.743c3.167,2.214,7.478,1.798,10.21-0.935l0.107-0.108c3.518-3.527,2.999-9.369-1.084-12.223
			c-18.566-12.981-34.664-29.258-47.433-47.981l41.304-25.526c24.895,35.333,66.002,58.462,112.413,58.462
			c38.07,0,73.537-15.784,98.93-42.057l36.803,31.565c-33.954,36.282-82.237,58.997-135.733,58.997
			c-25.53,0-49.867-5.185-72.031-14.539c-2.995-1.264-6.456-0.584-8.755,1.715l-0.122,0.122c-4.037,4.037-2.663,10.848,2.596,13.067
			c24.096,10.17,50.558,15.803,78.312,15.803c111.441,0,202.105-90.664,202.105-202.105
			C458.105,255.932,458.104,255.862,458.103,255.794z M93.767,346.753C78.683,319.893,70.063,288.937,70.063,256
			c0-43.3,14.879-83.191,39.792-114.828l36.853,31.609c-17.643,23.114-28.14,51.962-28.14,83.219
			c0,23.592,5.978,45.814,16.495,65.233L93.767,346.753z M402.27,370.675l-36.806-31.567c8.468-11.124,15.321-23.651,20.144-37.296
			c0.875-2.474,0.494-5.219-1.021-7.361c-1.516-2.143-3.976-3.417-6.601-3.417l-92.344-0.002v-48.505h155.949l0.346,13.576
			C441.915,299.295,427.09,339.087,402.27,370.675z"/>
	</g>
</g>
<g>
	<g>
		<path d="M437.019,74.982C388.667,26.628,324.379,0,256,0S123.333,26.628,74.982,74.982C26.628,123.333,0,187.621,0,256
			s26.628,132.667,74.982,181.019C123.333,485.372,187.621,512,256,512s132.667-26.628,181.019-74.982
			C485.372,388.667,512,324.379,512,256S485.372,123.333,437.019,74.982z M256,495.832C123.756,495.832,16.168,388.244,16.168,256
			S123.756,16.168,256,16.168S495.832,123.756,495.832,256S388.244,495.832,256,495.832z"/>
	</g>
</g>
<g>
</g>
<g>
</g>
<g>
</g>
<g>
</g>
<g>
</g>
<g>
</g>
<g>
</g>
<g>
</g>
<g>
</g>
<g>
</g>
<g>
</g>
<g>
</g>
<g>
</g>
<g>
</g>
<g>
</g>
</svg>
