<?xml version="1.0" encoding="UTF-8" standalone="no"?>
<!DOCTYPE svg PUBLIC "-//W3C//DTD SVG 1.1//EN" "http://www.w3.org/Graphics/SVG/1.1/DTD/svg11.dtd">
<svg version="1.1" xmlns="http://www.w3.org/2000/svg" xmlns:xlink="http://www.w3.org/1999/xlink" preserveAspectRatio="xMidYMid meet" viewBox="0 0 228 540" width="228" height="540"><defs><path d="M114 373.5L59 428.5L4 373.5L59 318.5L114 373.5Z" id="f4OOj0nLR"></path><path d="M114 373.5L59 428.5L4 373.5L59 318.5L114 373.5Z" id="a2A0WxyabJ"></path><path d="M4 428.5L59 483.5L59 428.5L4 373.5L4 428.5Z" id="beN8QLUgv"></path><path d="M40.81 470.57L95.81 525.57L95.81 470.57L40.81 415.57L40.81 470.57Z" id="a43XMF7j3A"></path><path d="M224 373.5L169 428.5L114 373.5L169 318.5L224 373.5Z" id="b1vzsTO3ii"></path><path d="M224 373.5L169 428.5L114 373.5L169 318.5L224 373.5Z" id="dMA3luK1q"></path><path d="M224 428.5L169 483.5L169 428.5L224 373.5L224 428.5Z" id="f28Atahtz8"></path><path d="M224 428.5L169 483.5L169 428.5L224 373.5L224 428.5Z" id="b2zXSM17tL"></path><path d="M169 428.5L114 483.5L59 428.5L114 373.5L169 428.5Z" id="d55tfNvhcc"></path><path d="M169 428.5L114 483.5L59 428.5L114 373.5L169 428.5Z" id="b7Xjun8nI0"></path><path d="M114 538.5L59 483.5L59 428.5L114 483.5L114 538.5Z" id="lqcmeLihY"></path><path d="M114 538.5L59 483.5L59 428.5L114 483.5L114 538.5Z" id="fwMv8IKJH"></path><path d="M169 428.5L169 483.5L114 538.5L114 483.5L169 428.5Z" id="b37RvLwpuG"></path><path d="M169 428.5L169 483.5L114 538.5L114 483.5L169 428.5Z" id="a17uIlmw8y"></path><path d="M126.49 202.98L100.68 203.22L85.69 177.09L70.6 203.08L57.77 203.08L51.21 191.73L72.72 154.75L57.45 128.18L70.34 105.72L126.49 202.98Z" id="blKnRdLv"></path><path d="M126.49 202.98L100.68 203.22L85.69 177.09L70.6 203.08L57.77 203.08L51.21 191.73L72.72 154.75L57.45 128.18L70.34 105.72L126.49 202.98Z" id="bU9N2EEP4"></path><path d="M34.45 162.91L21.33 140.69L36.47 114.64L6.41 114.56L0 103.45L6.55 92.1L49.33 92.23L64.71 65.72L90.6 65.66L34.45 162.91Z" id="cieNv82tp"></path><path d="M34.51 162.85L21.4 140.62L36.54 114.58L6.48 114.5L0.07 103.39L6.61 92.03L49.4 92.17L64.77 65.66L90.67 65.59L34.51 162.85Z" id="fm3UShTMr"></path><path d="M207.22 143.4L194.53 165.87L164.4 165.79L179.36 191.86L172.95 202.96L159.84 202.97L138.57 165.85L107.92 165.79L94.91 143.4L207.22 143.4Z" id="b1QX2Wezg9"></path><path d="M207.22 143.4L194.53 165.87L164.4 165.79L179.36 191.86L172.95 202.96L159.84 202.97L138.57 165.85L107.92 165.79L94.91 143.4L207.22 143.4Z" id="bHe23qnPc"></path><path d="M104.13 3.52L129.94 3.28L144.93 29.41L160.02 3.42L172.84 3.43L179.41 14.77L157.9 51.76L173.17 78.32L160.28 100.78L104.13 3.52Z" id="bEAjouLQZ"></path><path d="M104.13 3.52L129.94 3.28L144.93 29.41L160.02 3.42L172.84 3.43L179.41 14.77L157.9 51.76L173.17 78.32L160.28 100.78L104.13 3.52Z" id="bqmyxzsnQ"></path><path d="M126.49 202.98L100.68 203.22L85.69 177.09L70.6 203.08L57.77 203.08L51.21 191.73L72.72 154.75L57.45 128.18L70.34 105.72L126.49 202.98Z" id="dmZRtWGMj"></path><path d="M126.49 202.98L100.68 203.22L85.69 177.09L70.6 203.08L57.77 203.08L51.21 191.73L72.72 154.75L57.45 128.18L70.34 105.72L126.49 202.98Z" id="d2DzXjnUUx"></path><path d="M23.25 62.85L35.94 40.38L66.07 40.47L51.1 14.4L57.52 3.3L70.63 3.28L91.9 40.4L122.55 40.46L135.56 62.86L23.25 62.85Z" id="e3MUyG56aO"></path><path d="M23.25 62.85L35.94 40.38L66.07 40.47L51.1 14.4L57.52 3.3L70.63 3.28L91.9 40.4L122.55 40.46L135.56 62.86L23.25 62.85Z" id="b1L5K6hEEa"></path><path d="M196.1 43.57L209.21 65.8L194.07 91.84L224.13 91.92L230.54 103.03L224 114.39L181.21 114.25L165.84 140.76L139.94 140.83L196.1 43.57Z" id="b3sgAen328"></path><path d="M196.1 43.57L209.21 65.8L194.07 91.84L224.13 91.92L230.54 103.03L224 114.39L181.21 114.25L165.84 140.76L139.94 140.83L196.1 43.57Z" id="a21EIAihV"></path><path d="M126.55 202.92L100.75 203.16L85.76 177.03L70.66 203.02L57.84 203.01L51.27 191.67L72.78 154.68L57.51 128.12L70.4 105.66L126.55 202.92Z" id="a4mnDVS1Qf"></path><linearGradient id="gradiente1lz8aRMUz" gradientUnits="userSpaceOnUse" x1="52.8" y1="108.71" x2="93.93" y2="179.83"><stop style="stop-color: #699ad7;stop-opacity: 1" offset="0%"></stop><stop style="stop-color: #7eb1dd;stop-opacity: 1" offset="24.345198%"></stop><stop style="stop-color: #7ebae4;stop-opacity: 1" offset="100%"></stop></linearGradient><path d="M34.45 162.91L21.33 140.69L36.47 114.64L6.41 114.56L0 103.45L6.55 92.1L49.33 92.23L64.71 65.72L90.6 65.66L34.45 162.91Z" id="aTipzihvZ"></path><path d="M34.51 162.85L21.4 140.62L36.54 114.58L6.48 114.5L0.07 103.39L6.61 92.03L49.4 92.17L64.77 65.66L90.67 65.59L34.51 162.85Z" id="bHzjBwykf"></path><linearGradient id="gradienta2AvnIaEDO" gradientUnits="userSpaceOnUse" x1="79.23" y1="51.88" x2="38.19" y2="123.05"><stop style="stop-color: #699ad7;stop-opacity: 1" offset="0%"></stop><stop style="stop-color: #7eb1dd;stop-opacity: 1" offset="24.345198%"></stop><stop style="stop-color: #7ebae4;stop-opacity: 1" offset="100%"></stop></linearGradient><path d="M126.55 202.92L100.75 203.16L85.76 177.03L70.66 203.02L57.84 203.01L51.27 191.67L72.78 154.68L57.51 128.12L70.4 105.66L126.55 202.92Z" id="a4U1VQqwb1"></path><path d="M207.29 143.34L194.6 165.81L164.47 165.73L179.43 191.8L173.02 202.9L159.91 202.91L138.63 165.79L107.99 165.73L94.98 143.34L207.29 143.34Z" id="f5DCr1WFwh"></path><linearGradient id="gradienta8x0Cu1XEa" gradientUnits="userSpaceOnUse" x1="88.83" y1="160.11" x2="170.98" y2="160.05"><stop style="stop-color: #699ad7;stop-opacity: 1" offset="0%"></stop><stop style="stop-color: #7eb1dd;stop-opacity: 1" offset="24.345198%"></stop><stop style="stop-color: #7ebae4;stop-opacity: 1" offset="100%"></stop></linearGradient><path d="M207.29 143.34L194.6 165.81L164.47 165.73L179.43 191.8L173.02 202.9L159.91 202.91L138.63 165.79L107.99 165.73L94.98 143.34L207.29 143.34Z" id="b2ZFO1mtz"></path><path d="M104.2 3.46L130 3.22L144.99 29.35L160.09 3.36L172.91 3.36L179.48 14.71L157.97 51.69L173.24 78.26L160.35 100.72L104.2 3.46Z" id="e1Au6cb625"></path><linearGradient id="gradienthAwHM5BnY" gradientUnits="userSpaceOnUse" x1="177.95" y1="97.67" x2="136.83" y2="26.55"><stop style="stop-color: #699ad7;stop-opacity: 1" offset="0%"></stop><stop style="stop-color: #7eb1dd;stop-opacity: 1" offset="24.345198%"></stop><stop style="stop-color: #7ebae4;stop-opacity: 1" offset="100%"></stop></linearGradient><path d="M104.2 3.46L130 3.22L144.99 29.35L160.09 3.36L172.91 3.36L179.48 14.71L157.97 51.69L173.24 78.26L160.35 100.72L104.2 3.46Z" id="a12a9LM5tU"></path><path d="M126.55 202.92L100.75 203.16L85.76 177.03L70.66 203.02L57.84 203.01L51.27 191.67L72.78 154.68L57.51 128.12L70.4 105.66L126.55 202.92Z" id="b73MtfCTTh"></path><linearGradient id="gradiente2clX3tLYq" gradientUnits="userSpaceOnUse" x1="57.05" y1="106.29" x2="97.45" y2="177.68"><stop style="stop-color: #415e9a;stop-opacity: 1" offset="0%"></stop><stop style="stop-color: #4a6baf;stop-opacity: 1" offset="23.168644%"></stop><stop style="stop-color: #5277c3;stop-opacity: 1" offset="100%"></stop></linearGradient><path d="M126.55 202.92L100.75 203.16L85.76 177.03L70.66 203.02L57.84 203.01L51.27 191.67L72.78 154.68L57.51 128.12L70.4 105.66L126.55 202.92Z" id="a4TF8aL0T"></path><path d="M23.23 62.81L35.92 40.34L66.05 40.43L51.09 14.36L57.5 3.26L70.61 3.24L91.89 40.36L122.53 40.42L135.54 62.82L23.23 62.81Z" id="cHNPISlcw"></path><linearGradient id="gradientb2pCfKvnVy" gradientUnits="userSpaceOnUse" x1="141.66" y1="50.94" x2="59.64" y2="50.22"><stop style="stop-color: #415e9a;stop-opacity: 1" offset="0%"></stop><stop style="stop-color: #4a6baf;stop-opacity: 1" offset="23.168644%"></stop><stop style="stop-color: #5277c3;stop-opacity: 1" offset="100%"></stop></linearGradient><path d="M23.23 62.81L35.92 40.34L66.05 40.43L51.09 14.36L57.5 3.26L70.61 3.24L91.89 40.36L122.53 40.42L135.54 62.82L23.23 62.81Z" id="aertIsdMk"></path><path d="M196.11 43.52L209.22 65.74L194.09 91.79L224.15 91.87L230.55 102.97L224.01 114.33L181.23 114.19L165.85 140.7L139.95 140.77L196.11 43.52Z" id="b5ftY8zoq"></path><linearGradient id="gradientb19aJ0LXv" gradientUnits="userSpaceOnUse" x1="147.18" y1="152.01" x2="188.81" y2="81.34"><stop style="stop-color: #415e9a;stop-opacity: 1" offset="0%"></stop><stop style="stop-color: #4a6baf;stop-opacity: 1" offset="23.168644%"></stop><stop style="stop-color: #5277c3;stop-opacity: 1" offset="100%"></stop></linearGradient><path d="M196.11 43.52L209.22 65.74L194.09 91.79L224.15 91.87L230.55 102.97L224.01 114.33L181.23 114.19L165.85 140.7L139.95 140.77L196.11 43.52Z" id="c2J0B7dYhX"></path><path d="M123.6 238.39L123.64 238.39L123.69 238.4L123.74 238.41L123.78 238.42L123.83 238.43L123.87 238.45L123.91 238.46L123.96 238.48L124 238.5L124.04 238.52L124.08 238.54L124.11 238.56L124.15 238.58L124.19 238.61L124.22 238.64L124.26 238.66L124.29 238.69L124.32 238.72L124.35 238.75L124.38 238.78L124.41 238.82L124.43 238.85L124.46 238.88L124.48 238.92L124.5 238.96L124.52 238.99L124.54 239.03L124.56 239.07L124.57 239.11L124.59 239.15L124.6 239.19L124.61 239.23L124.62 239.27L124.63 239.32L124.63 239.36L124.63 239.4L124.63 239.45L124.63 260.77L148.27 260.77L148.32 260.77L148.37 260.77L148.41 260.78L148.46 260.78L148.51 260.8L148.55 260.81L148.6 260.82L148.64 260.83L148.69 260.85L148.73 260.86L148.77 260.88L148.81 260.9L148.85 260.92L148.89 260.94L148.93 260.96L148.97 260.99L149 261.01L149.04 261.03L149.07 261.06L149.1 261.08L149.14 261.12L149.17 261.15L149.19 261.18L149.22 261.22L149.25 261.25L149.27 261.27L149.3 261.32L149.32 261.36L149.34 261.39L149.36 261.43L149.37 261.47L149.39 261.51L149.4 261.55L149.42 261.58L149.43 261.63L149.43 261.67L149.44 261.72L149.45 261.76L149.45 261.8L149.45 261.85L149.45 278.9L149.45 278.96L149.45 279L149.44 279.03L149.43 279.08L149.43 279.13L149.42 279.17L149.4 279.21L149.39 279.25L149.37 279.28L149.36 279.33L149.34 279.37L149.32 279.4L149.3 279.44L149.27 279.48L149.25 279.51L149.22 279.53L149.19 279.58L149.17 279.61L149.14 279.64L149.1 279.67L149.07 279.7L149.04 279.72L149 279.75L148.97 279.77L148.93 279.8L148.89 279.82L148.85 279.83L148.81 279.86L148.77 279.88L148.73 279.9L148.69 279.9L148.64 279.93L148.6 279.94L148.55 279.95L148.51 279.96L148.46 279.97L148.41 279.97L148.37 279.98L148.32 279.98L148.27 279.98L124.63 279.98L124.63 301.31L124.63 301.36L124.63 301.4L124.63 301.44L124.62 301.49L124.61 301.52L124.6 301.57L124.59 301.61L124.57 301.65L124.56 301.69L124.54 301.73L124.52 301.77L124.5 301.79L124.48 301.84L124.46 301.88L124.43 301.9L124.41 301.94L124.38 301.98L124.35 302.01L124.32 302.03L124.29 302.07L124.26 302.1L124.22 302.12L124.19 302.15L124.15 302.16L124.11 302.2L124.08 302.22L124.04 302.24L124 302.26L123.96 302.27L123.91 302.29L123.87 302.31L123.83 302.33L123.78 302.34L123.74 302.35L123.69 302.36L123.64 302.37L123.6 302.37L123.55 302.38L123.5 302.38L123.45 302.38L104.55 302.38L104.5 302.38L104.45 302.38L104.4 302.37L104.36 302.37L104.31 302.36L104.26 302.35L104.22 302.34L104.17 302.33L104.13 302.31L104.09 302.29L104.04 302.27L104 302.26L103.96 302.24L103.92 302.22L103.89 302.2L103.85 302.16L103.81 302.15L103.78 302.12L103.74 302.1L103.71 302.07L103.68 302.03L103.65 302.01L103.62 301.98L103.59 301.94L103.57 301.9L103.54 301.88L103.52 301.84L103.5 301.79L103.48 301.77L103.46 301.73L103.44 301.69L103.43 301.65L103.41 301.61L103.4 301.57L103.39 301.52L103.38 301.49L103.37 301.44L103.37 301.4L103.37 301.36L103.37 301.31L103.37 279.98L79.73 279.98L79.68 279.98L79.63 279.98L79.59 279.97L79.54 279.97L79.49 279.96L79.45 279.95L79.4 279.94L79.36 279.93L79.31 279.9L79.27 279.9L79.23 279.88L79.19 279.86L79.15 279.83L79.11 279.82L79.07 279.8L79.03 279.77L79 279.75L78.96 279.72L78.93 279.7L78.9 279.67L78.86 279.64L78.83 279.61L78.81 279.58L78.78 279.53L78.75 279.51L78.73 279.48L78.7 279.44L78.68 279.4L78.66 279.37L78.64 279.33L78.63 279.28L78.61 279.25L78.6 279.21L78.58 279.17L78.57 279.13L78.57 279.08L78.56 279.03L78.55 279L78.55 278.96L78.55 278.9L78.55 261.85L78.55 261.8L78.55 261.76L78.56 261.72L78.57 261.67L78.57 261.63L78.58 261.58L78.6 261.55L78.61 261.51L78.63 261.47L78.64 261.43L78.66 261.39L78.68 261.36L78.7 261.32L78.73 261.27L78.75 261.25L78.78 261.22L78.81 261.18L78.83 261.15L78.86 261.12L78.9 261.08L78.93 261.06L78.96 261.03L79 261.01L79.03 260.99L79.07 260.96L79.11 260.94L79.15 260.92L79.19 260.9L79.23 260.88L79.27 260.86L79.31 260.85L79.36 260.83L79.4 260.82L79.45 260.81L79.49 260.8L79.54 260.78L79.59 260.78L79.63 260.77L79.68 260.77L79.73 260.77L103.37 260.77L103.37 239.45L103.37 239.4L103.37 239.36L103.37 239.32L103.38 239.27L103.39 239.23L103.4 239.19L103.41 239.15L103.43 239.11L103.44 239.07L103.46 239.03L103.48 238.99L103.5 238.96L103.52 238.92L103.54 238.88L103.57 238.85L103.59 238.82L103.62 238.78L103.65 238.75L103.68 238.72L103.71 238.69L103.74 238.66L103.78 238.64L103.81 238.61L103.85 238.58L103.89 238.56L103.92 238.54L103.96 238.52L104 238.5L104.04 238.48L104.09 238.46L104.13 238.45L104.17 238.43L104.22 238.42L104.26 238.41L104.31 238.4L104.36 238.39L104.4 238.39L104.45 238.38L104.5 238.38L104.55 238.38L123.45 238.38L123.5 238.38L123.55 238.38L123.6 238.39Z" id="eDbDFs0qJ"></path><path d="M123.6 238.39L123.64 238.39L123.69 238.4L123.74 238.41L123.78 238.42L123.83 238.43L123.87 238.45L123.91 238.46L123.96 238.48L124 238.5L124.04 238.52L124.08 238.54L124.11 238.56L124.15 238.58L124.19 238.61L124.22 238.64L124.26 238.66L124.29 238.69L124.32 238.72L124.35 238.75L124.38 238.78L124.41 238.82L124.43 238.85L124.46 238.88L124.48 238.92L124.5 238.96L124.52 238.99L124.54 239.03L124.56 239.07L124.57 239.11L124.59 239.15L124.6 239.19L124.61 239.23L124.62 239.27L124.63 239.32L124.63 239.36L124.63 239.4L124.63 239.45L124.63 260.77L148.27 260.77L148.32 260.77L148.37 260.77L148.41 260.78L148.46 260.78L148.51 260.8L148.55 260.81L148.6 260.82L148.64 260.83L148.69 260.85L148.73 260.86L148.77 260.88L148.81 260.9L148.85 260.92L148.89 260.94L148.93 260.96L148.97 260.99L149 261.01L149.04 261.03L149.07 261.06L149.1 261.08L149.14 261.12L149.17 261.15L149.19 261.18L149.22 261.22L149.25 261.25L149.27 261.27L149.3 261.32L149.32 261.36L149.34 261.39L149.36 261.43L149.37 261.47L149.39 261.51L149.4 261.55L149.42 261.58L149.43 261.63L149.43 261.67L149.44 261.72L149.45 261.76L149.45 261.8L149.45 261.85L149.45 278.9L149.45 278.96L149.45 279L149.44 279.03L149.43 279.08L149.43 279.13L149.42 279.17L149.4 279.21L149.39 279.25L149.37 279.28L149.36 279.33L149.34 279.37L149.32 279.4L149.3 279.44L149.27 279.48L149.25 279.51L149.22 279.53L149.19 279.58L149.17 279.61L149.14 279.64L149.1 279.67L149.07 279.7L149.04 279.72L149 279.75L148.97 279.77L148.93 279.8L148.89 279.82L148.85 279.83L148.81 279.86L148.77 279.88L148.73 279.9L148.69 279.9L148.64 279.93L148.6 279.94L148.55 279.95L148.51 279.96L148.46 279.97L148.41 279.97L148.37 279.98L148.32 279.98L148.27 279.98L124.63 279.98L124.63 301.31L124.63 301.36L124.63 301.4L124.63 301.44L124.62 301.49L124.61 301.52L124.6 301.57L124.59 301.61L124.57 301.65L124.56 301.69L124.54 301.73L124.52 301.77L124.5 301.79L124.48 301.84L124.46 301.88L124.43 301.9L124.41 301.94L124.38 301.98L124.35 302.01L124.32 302.03L124.29 302.07L124.26 302.1L124.22 302.12L124.19 302.15L124.15 302.16L124.11 302.2L124.08 302.22L124.04 302.24L124 302.26L123.96 302.27L123.91 302.29L123.87 302.31L123.83 302.33L123.78 302.34L123.74 302.35L123.69 302.36L123.64 302.37L123.6 302.37L123.55 302.38L123.5 302.38L123.45 302.38L104.55 302.38L104.5 302.38L104.45 302.38L104.4 302.37L104.36 302.37L104.31 302.36L104.26 302.35L104.22 302.34L104.17 302.33L104.13 302.31L104.09 302.29L104.04 302.27L104 302.26L103.96 302.24L103.92 302.22L103.89 302.2L103.85 302.16L103.81 302.15L103.78 302.12L103.74 302.1L103.71 302.07L103.68 302.03L103.65 302.01L103.62 301.98L103.59 301.94L103.57 301.9L103.54 301.88L103.52 301.84L103.5 301.79L103.48 301.77L103.46 301.73L103.44 301.69L103.43 301.65L103.41 301.61L103.4 301.57L103.39 301.52L103.38 301.49L103.37 301.44L103.37 301.4L103.37 301.36L103.37 301.31L103.37 279.98L79.73 279.98L79.68 279.98L79.63 279.98L79.59 279.97L79.54 279.97L79.49 279.96L79.45 279.95L79.4 279.94L79.36 279.93L79.31 279.9L79.27 279.9L79.23 279.88L79.19 279.86L79.15 279.83L79.11 279.82L79.07 279.8L79.03 279.77L79 279.75L78.96 279.72L78.93 279.7L78.9 279.67L78.86 279.64L78.83 279.61L78.81 279.58L78.78 279.53L78.75 279.51L78.73 279.48L78.7 279.44L78.68 279.4L78.66 279.37L78.64 279.33L78.63 279.28L78.61 279.25L78.6 279.21L78.58 279.17L78.57 279.13L78.57 279.08L78.56 279.03L78.55 279L78.55 278.96L78.55 278.9L78.55 261.85L78.55 261.8L78.55 261.76L78.56 261.72L78.57 261.67L78.57 261.63L78.58 261.58L78.6 261.55L78.61 261.51L78.63 261.47L78.64 261.43L78.66 261.39L78.68 261.36L78.7 261.32L78.73 261.27L78.75 261.25L78.78 261.22L78.81 261.18L78.83 261.15L78.86 261.12L78.9 261.08L78.93 261.06L78.96 261.03L79 261.01L79.03 260.99L79.07 260.96L79.11 260.94L79.15 260.92L79.19 260.9L79.23 260.88L79.27 260.86L79.31 260.85L79.36 260.83L79.4 260.82L79.45 260.81L79.49 260.8L79.54 260.78L79.59 260.78L79.63 260.77L79.68 260.77L79.73 260.77L103.37 260.77L103.37 239.45L103.37 239.4L103.37 239.36L103.37 239.32L103.38 239.27L103.39 239.23L103.4 239.19L103.41 239.15L103.43 239.11L103.44 239.07L103.46 239.03L103.48 238.99L103.5 238.96L103.52 238.92L103.54 238.88L103.57 238.85L103.59 238.82L103.62 238.78L103.65 238.75L103.68 238.72L103.71 238.69L103.74 238.66L103.78 238.64L103.81 238.61L103.85 238.58L103.89 238.56L103.92 238.54L103.96 238.52L104 238.5L104.04 238.48L104.09 238.46L104.13 238.45L104.17 238.43L104.22 238.42L104.26 238.41L104.31 238.4L104.36 238.39L104.4 238.39L104.45 238.38L104.5 238.38L104.55 238.38L123.45 238.38L123.5 238.38L123.55 238.38L123.6 238.39Z" id="eB5ySa6PM"></path></defs><g><g><g><g><use xlink:href="#f4OOj0nLR" opacity="1" fill="#76d275" fill-opacity="1"></use><g><use xlink:href="#f4OOj0nLR" opacity="1" fill-opacity="0" stroke="#000000" stroke-width="1" stroke-opacity="0"></use></g></g><g><use xlink:href="#a2A0WxyabJ" opacity="1" fill="#000000" fill-opacity="0"></use><g><use xlink:href="#a2A0WxyabJ" opacity="1" fill-opacity="0" stroke="#000000" stroke-width="1" stroke-opacity="0"></use></g></g><g><use xlink:href="#beN8QLUgv" opacity="1" fill="#43a047" fill-opacity="1"></use><g><use xlink:href="#beN8QLUgv" opacity="1" fill-opacity="0" stroke="#000000" stroke-width="1" stroke-opacity="0"></use></g></g><g><use xlink:href="#a43XMF7j3A" opacity="1" fill="#000000" fill-opacity="0"></use><g><use xlink:href="#a43XMF7j3A" opacity="1" fill-opacity="0" stroke="#000000" stroke-width="1" stroke-opacity="0"></use></g></g><g><use xlink:href="#b1vzsTO3ii" opacity="1" fill="#76d275" fill-opacity="1"></use><g><use xlink:href="#b1vzsTO3ii" opacity="1" fill-opacity="0" stroke="#000000" stroke-width="1" stroke-opacity="0"></use></g></g><g><use xlink:href="#dMA3luK1q" opacity="1" fill="#000000" fill-opacity="0"></use><g><use xlink:href="#dMA3luK1q" opacity="1" fill-opacity="0" stroke="#000000" stroke-width="1" stroke-opacity="0"></use></g></g><g><use xlink:href="#f28Atahtz8" opacity="1" fill="#43a047" fill-opacity="1"></use><g><use xlink:href="#f28Atahtz8" opacity="1" fill-opacity="0" stroke="#000000" stroke-width="1" stroke-opacity="0"></use></g></g><g><use xlink:href="#b2zXSM17tL" opacity="1" fill="#000000" fill-opacity="0"></use><g><use xlink:href="#b2zXSM17tL" opacity="1" fill-opacity="0" stroke="#000000" stroke-width="1" stroke-opacity="0"></use></g></g><g><use xlink:href="#d55tfNvhcc" opacity="1" fill="#43a047" fill-opacity="1"></use><g><use xlink:href="#d55tfNvhcc" opacity="1" fill-opacity="0" stroke="#000000" stroke-width="1" stroke-opacity="0"></use></g></g><g><use xlink:href="#b7Xjun8nI0" opacity="1" fill="#000000" fill-opacity="0"></use><g><use xlink:href="#b7Xjun8nI0" opacity="1" fill-opacity="0" stroke="#000000" stroke-width="1" stroke-opacity="0"></use></g></g><g><use xlink:href="#lqcmeLihY" opacity="1" fill="#00701a" fill-opacity="1"></use><g><use xlink:href="#lqcmeLihY" opacity="1" fill-opacity="0" stroke="#000000" stroke-width="1" stroke-opacity="0"></use></g></g><g><use xlink:href="#fwMv8IKJH" opacity="1" fill="#000000" fill-opacity="0"></use><g><use xlink:href="#fwMv8IKJH" opacity="1" fill-opacity="0" stroke="#000000" stroke-width="1" stroke-opacity="0"></use></g></g><g><use xlink:href="#b37RvLwpuG" opacity="1" fill="#004300" fill-opacity="1"></use><g><use xlink:href="#b37RvLwpuG" opacity="1" fill-opacity="0" stroke="#000000" stroke-width="1" stroke-opacity="0"></use></g></g><g><use xlink:href="#a17uIlmw8y" opacity="1" fill="#000000" fill-opacity="0"></use><g><use xlink:href="#a17uIlmw8y" opacity="1" fill-opacity="0" stroke="#000000" stroke-width="1" stroke-opacity="0"></use></g></g></g><g><g><use xlink:href="#blKnRdLv" opacity="1" fill="#5277c3" fill-opacity="1"></use><g><use xlink:href="#blKnRdLv" opacity="1" fill-opacity="0" stroke="#000000" stroke-width="1" stroke-opacity="0"></use></g></g><g><use xlink:href="#bU9N2EEP4" opacity="1" fill="#000000" fill-opacity="0"></use><g><use xlink:href="#bU9N2EEP4" opacity="1" fill-opacity="0" stroke="#000000" stroke-width="3" stroke-opacity="0"></use></g></g><g><use xlink:href="#cieNv82tp" opacity="1" fill="#7ebae4" fill-opacity="1"></use><g><use xlink:href="#cieNv82tp" opacity="1" fill-opacity="0" stroke="#000000" stroke-width="1" stroke-opacity="0"></use></g></g><g><use xlink:href="#fm3UShTMr" opacity="1" fill="#000000" fill-opacity="0"></use><g><use xlink:href="#fm3UShTMr" opacity="1" fill-opacity="0" stroke="#000000" stroke-width="3" stroke-opacity="0"></use></g></g><g><use xlink:href="#b1QX2Wezg9" opacity="1" fill="#7ebae4" fill-opacity="1"></use><g><use xlink:href="#b1QX2Wezg9" opacity="1" fill-opacity="0" stroke="#000000" stroke-width="1" stroke-opacity="0"></use></g></g><g><use xlink:href="#bHe23qnPc" opacity="1" fill="#000000" fill-opacity="0"></use><g><use xlink:href="#bHe23qnPc" opacity="1" fill-opacity="0" stroke="#000000" stroke-width="3" stroke-opacity="0"></use></g></g><g><use xlink:href="#bEAjouLQZ" opacity="1" fill="#7ebae4" fill-opacity="1"></use><g><use xlink:href="#bEAjouLQZ" opacity="1" fill-opacity="0" stroke="#000000" stroke-width="1" stroke-opacity="0"></use></g></g><g><use xlink:href="#bqmyxzsnQ" opacity="1" fill="#000000" fill-opacity="0"></use><g><use xlink:href="#bqmyxzsnQ" opacity="1" fill-opacity="0" stroke="#000000" stroke-width="3" stroke-opacity="0"></use></g></g><g><use xlink:href="#dmZRtWGMj" opacity="1" fill="#5277c3" fill-opacity="1"></use><g><use xlink:href="#dmZRtWGMj" opacity="1" fill-opacity="0" stroke="#000000" stroke-width="1" stroke-opacity="0"></use></g></g><g><use xlink:href="#d2DzXjnUUx" opacity="1" fill="#000000" fill-opacity="0"></use><g><use xlink:href="#d2DzXjnUUx" opacity="1" fill-opacity="0" stroke="#000000" stroke-width="3" stroke-opacity="0"></use></g></g><g><use xlink:href="#e3MUyG56aO" opacity="1" fill="#5277c3" fill-opacity="1"></use><g><use xlink:href="#e3MUyG56aO" opacity="1" fill-opacity="0" stroke="#000000" stroke-width="1" stroke-opacity="0"></use></g></g><g><use xlink:href="#b1L5K6hEEa" opacity="1" fill="#000000" fill-opacity="0"></use><g><use xlink:href="#b1L5K6hEEa" opacity="1" fill-opacity="0" stroke="#000000" stroke-width="3" stroke-opacity="0"></use></g></g><g><use xlink:href="#b3sgAen328" opacity="1" fill="#5277c3" fill-opacity="1"></use><g><use xlink:href="#b3sgAen328" opacity="1" fill-opacity="0" stroke="#000000" stroke-width="1" stroke-opacity="0"></use></g></g><g><use xlink:href="#a21EIAihV" opacity="1" fill="#000000" fill-opacity="0"></use><g><use xlink:href="#a21EIAihV" opacity="1" fill-opacity="0" stroke="#000000" stroke-width="3" stroke-opacity="0"></use></g></g><g><use xlink:href="#a4mnDVS1Qf" opacity="1" fill="url(#gradiente1lz8aRMUz)"></use><g><use xlink:href="#a4mnDVS1Qf" opacity="1" fill-opacity="0" stroke="#000000" stroke-width="1" stroke-opacity="0"></use></g></g><g><use xlink:href="#aTipzihvZ" opacity="1" fill="#000000" fill-opacity="0"></use><g><use xlink:href="#aTipzihvZ" opacity="1" fill-opacity="0" stroke="#000000" stroke-width="3" stroke-opacity="0"></use></g></g><g><use xlink:href="#bHzjBwykf" opacity="1" fill="url(#gradienta2AvnIaEDO)"></use><g><use xlink:href="#bHzjBwykf" opacity="1" fill-opacity="0" stroke="#000000" stroke-width="1" stroke-opacity="0"></use></g></g><g><use xlink:href="#a4U1VQqwb1" opacity="1" fill="#000000" fill-opacity="0"></use><g><use xlink:href="#a4U1VQqwb1" opacity="1" fill-opacity="0" stroke="#000000" stroke-width="3" stroke-opacity="0"></use></g></g><g><use xlink:href="#f5DCr1WFwh" opacity="1" fill="url(#gradienta8x0Cu1XEa)"></use><g><use xlink:href="#f5DCr1WFwh" opacity="1" fill-opacity="0" stroke="#000000" stroke-width="1" stroke-opacity="0"></use></g></g><g><use xlink:href="#b2ZFO1mtz" opacity="1" fill="#000000" fill-opacity="0"></use><g><use xlink:href="#b2ZFO1mtz" opacity="1" fill-opacity="0" stroke="#000000" stroke-width="3" stroke-opacity="0"></use></g></g><g><use xlink:href="#e1Au6cb625" opacity="1" fill="url(#gradienthAwHM5BnY)"></use><g><use xlink:href="#e1Au6cb625" opacity="1" fill-opacity="0" stroke="#000000" stroke-width="1" stroke-opacity="0"></use></g></g><g><use xlink:href="#a12a9LM5tU" opacity="1" fill="#000000" fill-opacity="0"></use><g><use xlink:href="#a12a9LM5tU" opacity="1" fill-opacity="0" stroke="#000000" stroke-width="3" stroke-opacity="0"></use></g></g><g><use xlink:href="#b73MtfCTTh" opacity="1" fill="url(#gradiente2clX3tLYq)"></use><g><use xlink:href="#b73MtfCTTh" opacity="1" fill-opacity="0" stroke="#000000" stroke-width="1" stroke-opacity="0"></use></g></g><g><use xlink:href="#a4TF8aL0T" opacity="1" fill="#000000" fill-opacity="0"></use><g><use xlink:href="#a4TF8aL0T" opacity="1" fill-opacity="0" stroke="#000000" stroke-width="3" stroke-opacity="0"></use></g></g><g><use xlink:href="#cHNPISlcw" opacity="1" fill="url(#gradientb2pCfKvnVy)"></use><g><use xlink:href="#cHNPISlcw" opacity="1" fill-opacity="0" stroke="#000000" stroke-width="1" stroke-opacity="0"></use></g></g><g><use xlink:href="#aertIsdMk" opacity="1" fill="#000000" fill-opacity="0"></use><g><use xlink:href="#aertIsdMk" opacity="1" fill-opacity="0" stroke="#000000" stroke-width="3" stroke-opacity="0"></use></g></g><g><use xlink:href="#b5ftY8zoq" opacity="1" fill="url(#gradientb19aJ0LXv)"></use><g><use xlink:href="#b5ftY8zoq" opacity="1" fill-opacity="0" stroke="#000000" stroke-width="1" stroke-opacity="0"></use></g></g><g><use xlink:href="#c2J0B7dYhX" opacity="1" fill="#000000" fill-opacity="0"></use><g><use xlink:href="#c2J0B7dYhX" opacity="1" fill-opacity="0" stroke="#000000" stroke-width="3" stroke-opacity="0"></use></g></g></g><g><g><use xlink:href="#eDbDFs0qJ" opacity="1" fill="#4b1f84" fill-opacity="0.33"></use><g><use xlink:href="#eDbDFs0qJ" opacity="1" fill-opacity="0" stroke="#000000" stroke-width="1" stroke-opacity="0"></use></g></g><g><use xlink:href="#eB5ySa6PM" opacity="1" fill="#000000" fill-opacity="0"></use><g><use xlink:href="#eB5ySa6PM" opacity="1" fill-opacity="0" stroke="#4b1f84" stroke-width="1" stroke-opacity="0.33"></use></g></g></g></g></g></svg>