<?xml version="1.0" encoding="UTF-8" standalone="no"?>
<!DOCTYPE svg PUBLIC "-//W3C//DTD SVG 1.1//EN" "http://www.w3.org/Graphics/SVG/1.1/DTD/svg11.dtd">
<svg version="1.1" xmlns="http://www.w3.org/2000/svg" xmlns:xlink="http://www.w3.org/1999/xlink" preserveAspectRatio="xMidYMid meet" viewBox="0 0 543 220" width="543" height="220"><defs><path d="M385.66 10L435.66 60L385.66 110L335.66 60L385.66 10Z" id="b2MOzY3Rox"></path><path d="M335.66 60L335.66 110L385.66 160L385.66 110L335.66 60Z" id="bomUhSXYA"></path><path d="M485.66 10L535.66 60L485.66 110L435.66 60L485.66 10Z" id="c4uf5mthKF"></path><path d="M535.66 60L535.66 110L485.66 160L485.66 110L535.66 60Z" id="a4N4EuHqpR"></path><path d="M435.66 60L485.66 110L435.66 160L385.66 110L435.66 60Z" id="a18AHTLJcF"></path><path d="M435.66 160L435.66 210L385.66 160L385.66 110L435.66 160Z" id="b1BFpIvxS9"></path><path d="M435.66 160L485.66 110L485.66 160L435.66 210L435.66 160Z" id="c62nAAlKQR"></path><path d="M77.55 112.5L133.7 209.76L107.89 210L92.9 183.87L77.81 209.86L64.98 209.86L58.42 198.51L79.93 161.53L64.66 134.96L77.55 112.5Z" id="c57BDV0kB"></path><path d="M97.81 72.44L41.66 169.69L28.54 147.47L43.68 121.42L13.62 121.34L7.21 110.23L13.76 98.88L56.54 99.01L71.92 72.5L97.81 72.44Z" id="a46QS27DCk"></path><path d="M102.12 150.18L214.43 150.18L201.74 172.65L171.61 172.57L186.57 198.64L180.16 209.74L167.05 209.75L145.78 172.63L115.13 172.57L102.12 150.18Z" id="b4PxTCMcIL"></path><path d="M167.49 107.56L111.34 10.3L137.15 10.06L152.14 36.19L167.23 10.2L180.05 10.21L186.62 21.55L165.11 58.54L180.38 85.1L167.49 107.56Z" id="bbBVblxLk"></path><path d="M77.55 112.5L133.7 209.76L107.89 210L92.9 183.87L77.81 209.86L64.98 209.86L58.42 198.51L79.93 161.53L64.66 134.96L77.55 112.5Z" id="fsIu3qOO"></path><path d="M142.77 69.64L30.46 69.63L43.15 47.16L73.28 47.25L58.31 21.18L64.73 10.08L77.84 10.06L99.11 47.18L129.76 47.24L142.77 69.64Z" id="b3QmrClXmc"></path><path d="M147.15 147.61L203.31 50.35L216.42 72.58L201.28 98.62L231.34 98.7L237.75 109.81L231.21 121.17L188.42 121.03L173.05 147.54L147.15 147.61Z" id="a4RMiob719"></path><path d="M77.61 112.44L133.76 209.7L107.96 209.94L92.97 183.81L77.87 209.8L65.05 209.79L58.48 198.45L79.99 161.46L64.72 134.9L77.61 112.44Z" id="j3UCJ13O9"></path><linearGradient id="gradientavbTbV5GS" gradientUnits="userSpaceOnUse" x1="60.01" y1="115.49" x2="101.14" y2="186.61"><stop style="stop-color: #699ad7;stop-opacity: 1" offset="0%"></stop><stop style="stop-color: #7eb1dd;stop-opacity: 1" offset="24.345198%"></stop><stop style="stop-color: #7ebae4;stop-opacity: 1" offset="100%"></stop></linearGradient><path d="M97.88 72.37L41.72 169.63L28.61 147.4L43.75 121.36L13.69 121.28L7.28 110.17L13.82 98.81L56.61 98.95L71.98 72.44L97.88 72.37Z" id="cnlR9iW7m"></path><linearGradient id="gradienta3tFWBqPRd" gradientUnits="userSpaceOnUse" x1="86.44" y1="58.66" x2="45.4" y2="129.83"><stop style="stop-color: #699ad7;stop-opacity: 1" offset="0%"></stop><stop style="stop-color: #7eb1dd;stop-opacity: 1" offset="24.345198%"></stop><stop style="stop-color: #7ebae4;stop-opacity: 1" offset="100%"></stop></linearGradient><path d="M102.19 150.12L214.5 150.12L201.81 172.59L171.68 172.51L186.64 198.58L180.23 209.68L167.12 209.69L145.84 172.57L115.2 172.51L102.19 150.12Z" id="g1h9By0bk2"></path><linearGradient id="gradientb5o2eH2kIQ" gradientUnits="userSpaceOnUse" x1="96.04" y1="166.89" x2="178.19" y2="166.83"><stop style="stop-color: #699ad7;stop-opacity: 1" offset="0%"></stop><stop style="stop-color: #7eb1dd;stop-opacity: 1" offset="24.345198%"></stop><stop style="stop-color: #7ebae4;stop-opacity: 1" offset="100%"></stop></linearGradient><path d="M167.56 107.5L111.41 10.24L137.21 10L152.2 36.13L167.3 10.14L180.12 10.14L186.69 21.49L165.18 58.47L180.45 85.04L167.56 107.5Z" id="bkgcpwOfR"></path><linearGradient id="gradienteZVZ7ZAoo" gradientUnits="userSpaceOnUse" x1="185.16" y1="104.45" x2="144.04" y2="33.33"><stop style="stop-color: #699ad7;stop-opacity: 1" offset="0%"></stop><stop style="stop-color: #7eb1dd;stop-opacity: 1" offset="24.345198%"></stop><stop style="stop-color: #7ebae4;stop-opacity: 1" offset="100%"></stop></linearGradient><path d="M77.61 112.44L133.76 209.7L107.96 209.94L92.97 183.81L77.87 209.8L65.05 209.79L58.48 198.45L79.99 161.46L64.72 134.9L77.61 112.44Z" id="b1Ug7wxEb6"></path><linearGradient id="gradientbNqiSG4OT" gradientUnits="userSpaceOnUse" x1="64.26" y1="113.07" x2="104.66" y2="184.46"><stop style="stop-color: #415e9a;stop-opacity: 1" offset="0%"></stop><stop style="stop-color: #4a6baf;stop-opacity: 1" offset="23.168644%"></stop><stop style="stop-color: #5277c3;stop-opacity: 1" offset="100%"></stop></linearGradient><path d="M142.75 69.6L30.44 69.59L43.13 47.12L73.26 47.21L58.3 21.14L64.71 10.04L77.82 10.02L99.1 47.14L129.74 47.2L142.75 69.6Z" id="aA4xoXyIR"></path><linearGradient id="gradientctH5DscNo" gradientUnits="userSpaceOnUse" x1="148.87" y1="57.72" x2="66.85" y2="57"><stop style="stop-color: #415e9a;stop-opacity: 1" offset="0%"></stop><stop style="stop-color: #4a6baf;stop-opacity: 1" offset="23.168644%"></stop><stop style="stop-color: #5277c3;stop-opacity: 1" offset="100%"></stop></linearGradient><path d="M147.16 147.55L203.32 50.3L216.43 72.52L201.3 98.57L231.36 98.65L237.76 109.75L231.22 121.11L188.44 120.97L173.06 147.48L147.16 147.55Z" id="amffEx5IJ"></path><linearGradient id="gradientck1WNHNSq" gradientUnits="userSpaceOnUse" x1="154.39" y1="158.79" x2="196.02" y2="88.12"><stop style="stop-color: #415e9a;stop-opacity: 1" offset="0%"></stop><stop style="stop-color: #4a6baf;stop-opacity: 1" offset="23.168644%"></stop><stop style="stop-color: #5277c3;stop-opacity: 1" offset="100%"></stop></linearGradient><path d="M295 80L295.05 80.01L295.09 80.01L295.14 80.02L295.19 80.03L295.23 80.04L295.28 80.05L295.32 80.07L295.36 80.08L295.41 80.1L295.45 80.12L295.49 80.14L295.53 80.16L295.56 80.18L295.6 80.21L295.64 80.23L295.67 80.26L295.71 80.28L295.74 80.31L295.77 80.34L295.8 80.37L295.83 80.4L295.86 80.44L295.88 80.47L295.91 80.5L295.93 80.54L295.95 80.58L295.97 80.61L295.99 80.65L296.01 80.69L296.02 80.73L296.04 80.77L296.05 80.81L296.06 80.85L296.07 80.89L296.08 80.94L296.08 80.98L296.08 81.02L296.08 81.07L296.08 102.4L319.72 102.4L319.77 102.4L319.82 102.4L319.86 102.41L319.91 102.41L319.96 102.42L320 102.43L320.05 102.44L320.09 102.45L320.14 102.47L320.18 102.48L320.22 102.5L320.26 102.52L320.3 102.54L320.34 102.56L320.38 102.58L320.42 102.61L320.45 102.63L320.49 102.66L320.52 102.68L320.55 102.71L320.59 102.74L320.62 102.77L320.64 102.8L320.67 102.84L320.7 102.87L320.72 102.9L320.75 102.94L320.77 102.98L320.79 103.01L320.81 103.05L320.82 103.09L320.84 103.13L320.85 103.17L320.87 103.21L320.88 103.25L320.88 103.29L320.89 103.34L320.9 103.38L320.9 103.42L320.9 103.47L320.9 120.53L320.9 120.58L320.9 120.62L320.89 120.66L320.88 120.71L320.88 120.75L320.87 120.79L320.85 120.83L320.84 120.87L320.82 120.91L320.81 120.95L320.79 120.99L320.77 121.02L320.75 121.06L320.72 121.1L320.7 121.13L320.67 121.16L320.64 121.2L320.62 121.23L320.59 121.26L320.55 121.29L320.52 121.32L320.49 121.34L320.45 121.37L320.42 121.39L320.38 121.42L320.34 121.44L320.3 121.46L320.26 121.48L320.22 121.5L320.18 121.52L320.14 121.53L320.09 121.55L320.05 121.56L320 121.57L319.96 121.58L319.91 121.59L319.86 121.59L319.82 121.6L319.77 121.6L319.72 121.6L296.08 121.6L296.08 142.93L296.08 142.98L296.08 143.02L296.08 143.06L296.07 143.11L296.06 143.15L296.05 143.19L296.04 143.23L296.02 143.27L296.01 143.31L295.99 143.35L295.97 143.39L295.95 143.42L295.93 143.46L295.91 143.5L295.88 143.53L295.86 143.56L295.83 143.6L295.8 143.63L295.77 143.66L295.74 143.69L295.71 143.72L295.67 143.74L295.64 143.77L295.6 143.79L295.56 143.82L295.53 143.84L295.49 143.86L295.45 143.88L295.41 143.9L295.36 143.92L295.32 143.93L295.28 143.95L295.23 143.96L295.19 143.97L295.14 143.98L295.09 143.99L295.05 143.99L295 144L294.95 144L294.9 144L276 144L275.95 144L275.9 144L275.85 143.99L275.81 143.99L275.76 143.98L275.71 143.97L275.67 143.96L275.62 143.95L275.58 143.93L275.54 143.92L275.49 143.9L275.45 143.88L275.41 143.86L275.37 143.84L275.34 143.82L275.3 143.79L275.26 143.77L275.23 143.74L275.19 143.72L275.16 143.69L275.13 143.66L275.1 143.63L275.07 143.6L275.04 143.56L275.02 143.53L274.99 143.5L274.97 143.46L274.95 143.42L274.93 143.39L274.91 143.35L274.89 143.31L274.88 143.27L274.86 143.23L274.85 143.19L274.84 143.15L274.83 143.11L274.82 143.06L274.82 143.02L274.82 142.98L274.82 142.93L274.82 121.6L251.18 121.6L251.13 121.6L251.08 121.6L251.04 121.59L250.99 121.59L250.94 121.58L250.9 121.57L250.85 121.56L250.81 121.55L250.76 121.53L250.72 121.52L250.68 121.5L250.64 121.48L250.6 121.46L250.56 121.44L250.52 121.42L250.48 121.39L250.45 121.37L250.41 121.34L250.38 121.32L250.35 121.29L250.31 121.26L250.28 121.23L250.26 121.2L250.23 121.16L250.2 121.13L250.18 121.1L250.15 121.06L250.13 121.02L250.11 120.99L250.09 120.95L250.08 120.91L250.06 120.87L250.05 120.83L250.03 120.79L250.02 120.75L250.02 120.71L250.01 120.66L250 120.62L250 120.58L250 120.53L250 103.47L250 103.42L250 103.38L250.01 103.34L250.02 103.29L250.02 103.25L250.03 103.21L250.05 103.17L250.06 103.13L250.08 103.09L250.09 103.05L250.11 103.01L250.13 102.98L250.15 102.94L250.18 102.9L250.2 102.87L250.23 102.84L250.26 102.8L250.28 102.77L250.31 102.74L250.35 102.71L250.38 102.68L250.41 102.66L250.45 102.63L250.48 102.61L250.52 102.58L250.56 102.56L250.6 102.54L250.64 102.52L250.68 102.5L250.72 102.48L250.76 102.47L250.81 102.45L250.85 102.44L250.9 102.43L250.94 102.42L250.99 102.41L251.04 102.41L251.08 102.4L251.13 102.4L251.18 102.4L274.82 102.4L274.82 81.07L274.82 81.02L274.82 80.98L274.82 80.94L274.83 80.89L274.84 80.85L274.85 80.81L274.86 80.77L274.88 80.73L274.89 80.69L274.91 80.65L274.93 80.61L274.95 80.58L274.97 80.54L274.99 80.5L275.02 80.47L275.04 80.44L275.07 80.4L275.1 80.37L275.13 80.34L275.16 80.31L275.19 80.28L275.23 80.26L275.26 80.23L275.3 80.21L275.34 80.18L275.37 80.16L275.41 80.14L275.45 80.12L275.49 80.1L275.54 80.08L275.58 80.07L275.62 80.05L275.67 80.04L275.71 80.03L275.76 80.02L275.81 80.01L275.85 80.01L275.9 80L275.95 80L276 80L294.9 80L294.95 80L295 80Z" id="a6pWtvvvq0"></path></defs><g><g><g><g><use xlink:href="#b2MOzY3Rox" opacity="1" fill="#76d275" fill-opacity="1"></use><g><use xlink:href="#b2MOzY3Rox" opacity="1" fill-opacity="0" stroke="#000000" stroke-width="1" stroke-opacity="0"></use></g></g><g><use xlink:href="#bomUhSXYA" opacity="1" fill="#43a047" fill-opacity="1"></use><g><use xlink:href="#bomUhSXYA" opacity="1" fill-opacity="0" stroke="#000000" stroke-width="1" stroke-opacity="0"></use></g></g><g><use xlink:href="#c4uf5mthKF" opacity="1" fill="#76d275" fill-opacity="1"></use><g><use xlink:href="#c4uf5mthKF" opacity="1" fill-opacity="0" stroke="#000000" stroke-width="1" stroke-opacity="0"></use></g></g><g><use xlink:href="#a4N4EuHqpR" opacity="1" fill="#43a047" fill-opacity="1"></use><g><use xlink:href="#a4N4EuHqpR" opacity="1" fill-opacity="0" stroke="#000000" stroke-width="1" stroke-opacity="0"></use></g></g><g><use xlink:href="#a18AHTLJcF" opacity="1" fill="#43a047" fill-opacity="1"></use><g><use xlink:href="#a18AHTLJcF" opacity="1" fill-opacity="0" stroke="#000000" stroke-width="1" stroke-opacity="0"></use></g></g><g><use xlink:href="#b1BFpIvxS9" opacity="1" fill="#00701a" fill-opacity="1"></use><g><use xlink:href="#b1BFpIvxS9" opacity="1" fill-opacity="0" stroke="#000000" stroke-width="1" stroke-opacity="0"></use></g></g><g><use xlink:href="#c62nAAlKQR" opacity="1" fill="#004300" fill-opacity="1"></use><g><use xlink:href="#c62nAAlKQR" opacity="1" fill-opacity="0" stroke="#000000" stroke-width="1" stroke-opacity="0"></use></g></g></g><g><g><use xlink:href="#c57BDV0kB" opacity="1" fill="#5277c3" fill-opacity="1"></use><g><use xlink:href="#c57BDV0kB" opacity="1" fill-opacity="0" stroke="#000000" stroke-width="3" stroke-opacity="0"></use></g></g><g><use xlink:href="#a46QS27DCk" opacity="1" fill="#7ebae4" fill-opacity="1"></use><g><use xlink:href="#a46QS27DCk" opacity="1" fill-opacity="0" stroke="#000000" stroke-width="3" stroke-opacity="0"></use></g></g><g><use xlink:href="#b4PxTCMcIL" opacity="1" fill="#7ebae4" fill-opacity="1"></use><g><use xlink:href="#b4PxTCMcIL" opacity="1" fill-opacity="0" stroke="#000000" stroke-width="3" stroke-opacity="0"></use></g></g><g><use xlink:href="#bbBVblxLk" opacity="1" fill="#7ebae4" fill-opacity="1"></use><g><use xlink:href="#bbBVblxLk" opacity="1" fill-opacity="0" stroke="#000000" stroke-width="3" stroke-opacity="0"></use></g></g><g><use xlink:href="#fsIu3qOO" opacity="1" fill="#5277c3" fill-opacity="1"></use><g><use xlink:href="#fsIu3qOO" opacity="1" fill-opacity="0" stroke="#000000" stroke-width="3" stroke-opacity="0"></use></g></g><g><use xlink:href="#b3QmrClXmc" opacity="1" fill="#5277c3" fill-opacity="1"></use><g><use xlink:href="#b3QmrClXmc" opacity="1" fill-opacity="0" stroke="#000000" stroke-width="3" stroke-opacity="0"></use></g></g><g><use xlink:href="#a4RMiob719" opacity="1" fill="#5277c3" fill-opacity="1"></use><g><use xlink:href="#a4RMiob719" opacity="1" fill-opacity="0" stroke="#000000" stroke-width="3" stroke-opacity="0"></use></g></g><g><use xlink:href="#j3UCJ13O9" opacity="1" fill="url(#gradientavbTbV5GS)"></use><g><use xlink:href="#j3UCJ13O9" opacity="1" fill-opacity="0" stroke="#000000" stroke-width="3" stroke-opacity="0"></use></g></g><g><use xlink:href="#cnlR9iW7m" opacity="1" fill="url(#gradienta3tFWBqPRd)"></use><g><use xlink:href="#cnlR9iW7m" opacity="1" fill-opacity="0" stroke="#000000" stroke-width="3" stroke-opacity="0"></use></g></g><g><use xlink:href="#g1h9By0bk2" opacity="1" fill="url(#gradientb5o2eH2kIQ)"></use><g><use xlink:href="#g1h9By0bk2" opacity="1" fill-opacity="0" stroke="#000000" stroke-width="3" stroke-opacity="0"></use></g></g><g><use xlink:href="#bkgcpwOfR" opacity="1" fill="url(#gradienteZVZ7ZAoo)"></use><g><use xlink:href="#bkgcpwOfR" opacity="1" fill-opacity="0" stroke="#000000" stroke-width="3" stroke-opacity="0"></use></g></g><g><use xlink:href="#b1Ug7wxEb6" opacity="1" fill="url(#gradientbNqiSG4OT)"></use><g><use xlink:href="#b1Ug7wxEb6" opacity="1" fill-opacity="0" stroke="#000000" stroke-width="3" stroke-opacity="0"></use></g></g><g><use xlink:href="#aA4xoXyIR" opacity="1" fill="url(#gradientctH5DscNo)"></use><g><use xlink:href="#aA4xoXyIR" opacity="1" fill-opacity="0" stroke="#000000" stroke-width="3" stroke-opacity="0"></use></g></g><g><use xlink:href="#amffEx5IJ" opacity="1" fill="url(#gradientck1WNHNSq)"></use><g><use xlink:href="#amffEx5IJ" opacity="1" fill-opacity="0" stroke="#000000" stroke-width="3" stroke-opacity="0"></use></g></g></g><g><use xlink:href="#a6pWtvvvq0" opacity="1" fill="#4B1F84" fill-opacity=".33"></use><g><use xlink:href="#a6pWtvvvq0" opacity="1" fill-opacity="0" stroke="#4B1F84" stroke-width="1" stroke-opacity=".33"></use></g></g></g></g></svg>
