<svg width="501.70361" height="435.14028" xmlns="http://www.w3.org/2000/svg" xmlns:xlink="http://www.w3.org/1999/xlink">
 <defs>
  <clipPath clipPathUnits="userSpaceOnUse" id="clipPath4501">
   <circle clip-rule="nonzero" fill="#adadad" fill-rule="evenodd" stroke-width="2" stroke-linejoin="round" stroke-miterlimit="8" stroke-dashoffset="0" id="circle4503" cx="335.13995" cy="686.09473" r="241.06563"/>
  </clipPath>
  <clipPath clipPathUnits="userSpaceOnUse" id="clipPath5410">
   <circle clip-rule="nonzero" fill="#ffffff" fill-rule="evenodd" stroke-width="2" stroke-linejoin="round" stroke-miterlimit="8" stroke-dashoffset="0" id="circle5412" cx="335.98114" cy="340.98975" r="241.13741"/>
  </clipPath>
  <linearGradient id="linearGradient5960">
   <stop stop-color="#637ddf" offset="0" id="stop5962"/>
   <stop stop-color="#649afa" id="stop5964" offset="0.231686"/>
   <stop stop-color="#719efa" offset="1" id="stop5966"/>
  </linearGradient>
  <linearGradient xlink:href="#linearGradient5960" id="linearGradient5855" x1="0.102237" y1="0.006484" x2="0.533178" y2="0.78384"/>
 </defs>
 <metadata id="metadata7">image/svg+xml</metadata>
 <g>
  <title>background</title>
  <rect fill="none" id="canvas_background" height="402" width="582" y="-1" x="-1"/>
 </g>
 <g>
  <title>Layer 1</title>
  <g display="none" id="layer7">
   <rect clip-rule="nonzero" fill="none" fill-rule="evenodd" stroke="#ffffff" stroke-width="2" stroke-linejoin="round" stroke-miterlimit="8" stroke-dashoffset="0" shape-rendering="auto" y="-24.587818" x="-23.756509" height="483.7439" width="1543.4283" id="rect5389"/>
  </g>
  <g display="none" id="layer6">
   <rect clip-rule="nonzero" fill="none" fill-rule="evenodd" stroke="#ffffff" stroke-width="2" stroke-linejoin="round" stroke-miterlimit="8" stroke-dashoffset="0" shape-rendering="auto" id="rect5379" width="550.41602" height="484.30399" x="-23.687425" y="-24.837099"/>
   <rect clip-rule="nonzero" fill="none" fill-rule="evenodd" stroke="#ffffff" stroke-width="2" stroke-linejoin="round" stroke-miterlimit="8" stroke-dashoffset="0" shape-rendering="auto" y="0.162901" x="-0.215685" height="434.30405" width="501.94415" id="rect5372"/>
   <rect clip-rule="nonzero" fill="none" fill-rule="evenodd" stroke="#ffffff" stroke-width="2" stroke-linejoin="round" stroke-miterlimit="4" stroke-dashoffset="0" shape-rendering="auto" y="-24.849729" x="501.689545" height="24.939611" width="24.939611" id="rect5381"/>
  </g>
  <path clip-rule="nonzero" fill="none" fill-rule="evenodd" stroke="#ffffff" stroke-width="2" stroke-linejoin="round" stroke-miterlimit="4" stroke-dashoffset="0" id="path4861" d="m153.064935,222.938391l122.19683,211.6751l-56.15706,0.5268l-32.6236,-56.8692l-32.85645,56.5653l-27.90237,-0.011l-14.29086,-24.6896l46.81047,-80.4902l-33.22946,-57.8256l28.0525,-48.8816z"/>
  <path clip-rule="nonzero" fill="none" fill-rule="evenodd" stroke="#ffffff" stroke-width="2" stroke-linejoin="round" stroke-miterlimit="4" stroke-dashoffset="0" id="use4863" d="m197.170545,135.747191l-122.21756,211.6631l-28.53477,-48.37l32.93839,-56.6875l-65.41521,-0.1719l-13.9414,-24.1698l14.23637,-24.721l93.11177,0.2939l33.46371,-57.6903l56.3587,-0.1465z"/>
  <path clip-rule="nonzero" fill="none" fill-rule="evenodd" stroke="#ffffff" stroke-width="2" stroke-linejoin="round" stroke-miterlimit="4" stroke-dashoffset="0" id="use4865" d="m206.546655,304.947491l244.41439,0.012l-27.62229,48.8968l-65.56199,-0.1817l32.55876,56.7371l-13.96098,24.1585l-28.52722,0.032l-46.3013,-80.7841l-66.69317,-0.1353l-28.3062,-48.7353z"/>
  <path clip-rule="nonzero" fill="none" fill-rule="evenodd" stroke="#ffffff" stroke-width="2" stroke-linejoin="round" stroke-miterlimit="4" stroke-dashoffset="0" id="use4867" d="m348.804465,212.201891l-122.19683,-211.6751l56.15706,-0.5268l32.6236,56.8692l32.85645,-56.5653l27.90237,0.011l14.29086,24.6896l-46.81047,80.4902l33.22946,57.8256l-28.0525,48.8816z"/>
  <path clip-rule="nonzero" fill="none" fill-rule="evenodd" stroke="#ffffff" stroke-width="2" stroke-linejoin="round" stroke-miterlimit="4" stroke-dashoffset="0" d="m153.064935,222.938391l122.19683,211.6751l-56.15706,0.5268l-32.6236,-56.8692l-32.85645,56.5653l-27.90237,-0.011l-14.29086,-24.6896l46.81047,-80.4902l-33.22946,-57.8256l28.0525,-48.8816z" id="path4873"/>
  <path clip-rule="nonzero" fill="none" fill-rule="evenodd" stroke="#ffffff" stroke-width="2" stroke-linejoin="round" stroke-miterlimit="4" stroke-dashoffset="0" d="m294.997685,129.657851l-244.4144,-0.012l27.62229,-48.89685l65.56199,0.18175l-32.55875,-56.73717l13.96097,-24.15851l28.52722,-0.0315l46.3013,80.78414l66.69317,0.13524l28.30621,48.7349z" id="use4875"/>
  <path clip-rule="nonzero" fill="none" fill-rule="evenodd" stroke="#ffffff" stroke-width="2" stroke-linejoin="round" stroke-miterlimit="4" stroke-dashoffset="0" d="m304.533065,299.347991l122.21757,-211.66304l28.53477,48.37003l-32.93839,56.68751l65.4152,0.1718l13.9414,24.1698l-14.23636,24.7211l-93.11177,-0.294l-33.46371,57.6904l-56.35871,0.1464z" id="use4877"/>
  <g display="none" id="layer2">
   <path opacity="0.236" fill="#4e4d52" fill-rule="nonzero" stroke="#000000" stroke-width="2" stroke-linejoin="round" stroke-miterlimit="4" stroke-dashoffset="0" id="path6032" d="m376.306615,-271.528331l-250.86446,-0.00001l-125.43221,-217.255l125.43223,-217.25498l250.86446,0.00001l125.43222,217.255l-125.43224,217.25498z"/>
   <path fill="#4e4d52" fill-rule="nonzero" stroke="#000000" stroke-width="2" stroke-linejoin="round" stroke-miterlimit="4" stroke-dashoffset="0" d="m301.291865,-401.457662l-100.83495,0l-50.41747,-87.32564l50.41748,-87.32563l100.83495,0.00001l50.41748,87.32563l-50.41749,87.32563z" id="path5875"/>
   <path fill="url(#linearGradient5855)" fill-rule="evenodd" stroke="#000000" stroke-width="2" stroke-linejoin="round" stroke-miterlimit="4" d="m1132.259425,-235.990922l123.0545,228.14035l-42.6807,-1.2616l-43.4823,-79.7725l-39.6506,80.3267l-32.6875,-19.7984l53.4737,-100.2848l-37.1157,-73.88955l19.0886,-33.4602z" id="path5851"/>
   <rect clip-rule="nonzero" opacity="0.415" fill="#c53a3a" fill-rule="nonzero" stroke="#000000" stroke-width="2" stroke-linejoin="round" stroke-miterlimit="4" stroke-dashoffset="0" shape-rendering="auto" transform="rotate(-30 -94.6244506835936,-306.97210693359375) " y="-420.086581" x="-119.041885" height="226.22897" width="48.834862" id="rect5884"/>
   <path clip-rule="nonzero" opacity="0.509" fill="#000000" fill-rule="evenodd" stroke="#000000" stroke-width="2" stroke-linejoin="round" stroke-miterlimit="4" stroke-dashoffset="0" d="m167.686005,-295.886562l-14.02447,24.29109l-28.04894,0l-14.02447,-24.29109l14.02447,-24.2911l28.04894,0l14.02447,24.2911z" id="path3428"/>
   <use stroke="#000000" height="100%" width="100%" transform="rotate(60 -94.62444305419923,-306.97210693359375) " id="use4252" xlink:href="#rect5884" y="0" x="0"/>
   <rect clip-rule="nonzero" fill="#000000" fill-opacity="0.650794" fill-rule="evenodd" stroke="#000000" stroke-width="1px" stroke-miterlimit="4" stroke-dashoffset="0" shape-rendering="auto" transform="rotate(30 464.1078491210937,-341.62426757812506) " y="-399.187071" x="461.410465" height="115.12564" width="5.394748" id="rect4254"/>
  </g>
 </g>
</svg>
