<svg width="400" height="400" viewBox="0 0 1024 1024" fill-opacity="0.0" stroke="#000" stroke-width="16">
<defs>
	<path id="ld1" d="m153.064935,222.938391l122.19683,211.6751l-56.15706,0.5268l-32.6236,-56.8692l-32.85645,56.5653l-27.90237,-0.011l-14.29086,-24.6896l46.81047,-80.4902l-33.22946,-57.8256l28.0525,-48.8816z"/>
  <path id="ld2" d="m197.170545,135.747191l-122.21756,211.6631l-28.53477,-48.37l32.93839,-56.6875l-65.41521,-0.1719l-13.9414,-24.1698l14.23637,-24.721l93.11177,0.2939l33.46371,-57.6903l56.3587,-0.1465z"/>
  <path id="ld3" d="m206.546655,304.947491l244.41439,0.012l-27.62229,48.8968l-65.56199,-0.1817l32.55876,56.7371l-13.96098,24.1585l-28.52722,0.032l-46.3013,-80.7841l-66.69317,-0.1353l-28.3062,-48.7353z"/>
  <path id="ld4" d="m348.804465,212.201891l-122.19683,-211.6751l56.15706,-0.5268l32.6236,56.8692l32.85645,-56.5653l27.90237,0.011l14.29086,24.6896l-46.81047,80.4902l33.22946,57.8256l-28.0525,48.8816z"/>
  <path id="ld5" d="m153.064935,222.938391l122.19683,211.6751l-56.15706,0.5268l-32.6236,-56.8692l-32.85645,56.5653l-27.90237,-0.011l-14.29086,-24.6896l46.81047,-80.4902l-33.22946,-57.8256l28.0525,-48.8816z"/>
  <path id="ld6" d="m294.997685,129.657851l-244.4144,-0.012l27.62229,-48.89685l65.56199,0.18175l-32.55875,-56.73717l13.96097,-24.15851l28.52722,-0.0315l46.3013,80.78414l66.69317,0.13524l28.30621,48.7349z"/>
  <path id="ld7" d="m304.533065,299.347991l122.21757,-211.66304l28.53477,48.37003l-32.93839,56.68751l65.4152,0.1718l13.9414,24.1698l-14.23636,24.7211l-93.11177,-0.294l-33.46371,57.6904l-56.35871,0.1464z"/>
	<clipPath id="clip">
		<use xlink:href="#ld1"/>
    <use xlink:href="#ld2"/>
    <use xlink:href="#ld3"/>
    <use xlink:href="#ld4"/>
    <use xlink:href="#ld5"/>
    <use xlink:href="#ld6"/>
    <use xlink:href="#ld7"/>
	</clipPath>
</defs>
<g>
	<use xlink:href="#ld1" clip-path="url(#clip)"/>
  <use xlink:href="#ld2" clip-path="url(#clip)"/>
  <use xlink:href="#ld3" clip-path="url(#clip)"/>
  <use xlink:href="#ld4" clip-path="url(#clip)"/>
  <use xlink:href="#ld5" clip-path="url(#clip)"/>
  <use xlink:href="#ld6" clip-path="url(#clip)"/>
  <use xlink:href="#ld7" clip-path="url(#clip)"/>
</g>
</svg>
