<?xml version="1.0" encoding="UTF-8" standalone="no"?>
<!DOCTYPE svg PUBLIC "-//W3C//DTD SVG 1.1//EN" "http://www.w3.org/Graphics/SVG/1.1/DTD/svg11.dtd">
<svg version="1.1" xmlns="http://www.w3.org/2000/svg" xmlns:xlink="http://www.w3.org/1999/xlink" preserveAspectRatio="xMidYMid meet" viewBox="0 0 640 640" width="640" height="640"><defs><path d="M228.21 108.7C239.41 99.8 246.59 86.08 246.59 70.67C246.59 43.85 224.84 22.1 198.02 22.1C171.2 22.1 149.45 43.85 149.45 70.67C149.45 91.11 162.09 108.59 179.97 115.76C192.47 103.61 211.75 100.13 228.21 108.7Z" id="e2EMvej1RW"></path><path d="M-467.56 132.45C-477.74 132.45 -559.17 132.45 -569.35 132.45C-581.45 132.45 -593.29 135.97 -603.44 142.57C-607.22 145.04 -626.14 157.36 -660.19 179.54L-695.52 126.91C-685.55 106.61 -680 95.33 -678.9 93.07C-678.72 93.07 -678.54 93.09 -678.36 93.09C-666.61 93.09 -654.91 86.63 -649.14 74.88C-646.4 69.32 -624.56 24.87 -621.83 19.31C-618.45 12.44 -621.28 4.14 -628.15 0.77C-635.02 -2.61 -643.32 0.22 -646.69 7.09C-649.42 12.65 -671.27 57.11 -674 62.67C-675.19 65.08 -678.09 66.04 -680.46 64.87C-682.86 63.69 -683.84 60.79 -682.67 58.4C-679.94 52.84 -658.09 8.39 -655.36 2.83C-651.99 -4.04 -654.82 -12.34 -661.69 -15.71C-668.56 -19.09 -676.85 -16.26 -680.23 -9.39C-682.96 -3.83 -704.81 40.63 -707.54 46.18C-713.27 57.84 -711.35 71.29 -703.75 80.83C-705.42 84.23 -718.78 111.42 -720.45 114.82C-728.75 116.12 -736.7 121.69 -740.72 133C-742.63 138.35 -741.84 144.29 -738.67 149C-733.51 156.7 -692.15 218.31 -686.98 226.01C-682.34 232.92 -674.73 236.66 -666.98 236.66C-662.5 236.66 -657.97 235.41 -653.94 232.81C-650.1 230.33 -630.88 217.91 -596.3 195.57C-596.3 434.62 -596.29 567.42 -596.29 593.98C-596.29 616.08 -571.48 632.38 -548.2 616.55C-542.06 612.37 -538.52 605.31 -538.52 597.89C-538.52 582.24 -538.52 503.98 -538.52 363.12L-526.05 363.12C-526.05 503.98 -526.05 582.24 -526.05 597.89C-526.05 605.31 -522.51 612.37 -516.38 616.55C-493.09 632.38 -468.29 616.08 -468.29 593.98C-468.34 553.52 -468.75 229.86 -468.8 189.4C-468.8 186.63 -466.56 184.38 -463.79 184.37C-461.01 184.36 -458.75 186.59 -458.74 189.37C-458.65 207.05 -457.94 348.51 -457.85 366.2C-457.78 379.45 -447.02 390.14 -433.78 390.14C-433.74 390.14 -433.7 390.14 -433.66 390.14C-420.36 390.08 -409.64 379.25 -409.71 365.95C-409.77 354.17 -410.07 295.22 -410.6 189.13C-427.74 151.34 -446.73 132.45 -467.56 132.45Z" id="k24S4m1eio"></path><path d="M225.31 338.61C204.22 347.63 179.79 337.85 170.76 316.74C169.22 313.15 168.24 309.45 167.76 305.76C155.72 307 144 302.94 135.38 295.01C135.38 324.49 135.39 560.3 135.39 589.78C135.39 605.31 147.98 617.9 163.51 617.9C179.04 617.9 191.64 605.31 191.64 589.78C191.64 567.92 191.64 393.09 191.64 371.24C191.64 367.79 194.43 365 197.88 365C201.14 365 203.78 367.64 203.78 370.9C203.78 392.79 203.78 567.89 203.78 589.78C203.78 605.31 216.37 617.9 231.9 617.9C247.43 617.9 260.02 605.31 260.02 589.78C259.99 572.06 259.82 483.46 259.51 323.98C238.99 332.76 227.59 337.63 225.31 338.61Z" id="afW0u3k3f"></path><path d="M185.4 272.8C189.95 260.91 226.31 165.79 230.86 153.9C235.48 141.81 229.43 128.26 217.34 123.64C205.25 119.02 191.7 125.07 187.08 137.16C183.95 145.34 158.93 210.78 155.81 218.96C146.11 207.16 136.96 195.6 131.83 188.2C133.16 188.14 139.77 187.84 151.67 187.29C162.17 159.17 168 143.54 169.16 140.42C155.97 140.42 148.65 140.42 135.28 140.42C117.81 140.42 101.37 149.13 92.1 162.49C83.54 174.83 81.62 189.93 97.36 203.92C102.18 216.83 147.35 269.45 156.33 279.79C151.26 286.07 159.56 288.92 167.59 287.5C175.7 286.07 182.46 280.49 185.4 272.8Z" id="a24Tg8hhPm"></path><path d="M316.18 195.53C315.99 165.14 291.13 140.42 260.73 140.42C259.68 140.42 251.26 140.42 250.21 140.42C251.03 146.96 250.3 153.78 247.79 160.37C243.55 171.46 216.27 242.81 212.03 253.89C215.2 252.53 231.02 245.76 259.51 233.58C259.51 211.14 259.51 198.67 259.51 196.17C259.51 193.52 261.61 191.35 264.26 191.27C266.91 191.18 269.15 193.22 269.32 195.86C269.32 195.86 269.32 195.86 269.32 195.86C269.62 244.02 269.46 218.49 269.65 248.95C261.41 252.48 206.84 275.82 199.75 278.85C187.74 283.99 182.41 297.9 187.42 309.61C192.52 321.53 206.3 327.03 218.19 321.94C226.61 318.34 293.98 289.52 302.4 285.92C311.08 282.21 316.68 273.66 316.62 264.22C316.61 261.94 316.54 250.5 316.4 229.91L316.19 195.57C316.19 195.55 316.18 195.54 316.18 195.53Z" id="ge84G6jtY"></path><path d="M320.69 41.45C319.4 43.54 319.97 46.28 321.99 47.69C322.76 48.23 328.99 52.58 329.77 53.12C331.52 54.35 333.93 53.92 335.15 52.16C337.58 48.65 342.02 45.37 346.93 45.37C352.15 45.37 357.87 48.51 357.87 55.07C357.87 66.09 340.24 70.25 334.46 76.4C331.09 79.98 329.72 83.95 329.25 88.93C329.04 91.21 330.83 93.16 333.1 93.16C334.19 93.16 342.95 93.16 344.04 93.16C345.74 93.16 347.23 92.06 347.73 90.44C347.98 89.61 348.36 88.86 348.87 88.17C355.26 79.44 377.13 78.28 377.13 55.2C377.12 37.81 364.67 27.5 347.76 27.5C336.7 27.5 326.32 32.3 320.69 41.45Z" id="a1ddP7wpmG"></path><path d="M338.69 102.35C333.24 102.35 328.82 106.77 328.82 112.22C328.82 117.67 333.24 122.09 338.69 122.09C344.14 122.09 348.56 117.67 348.56 112.22C348.56 106.77 344.14 102.35 338.69 102.35Z" id="cYiAlGBIi"></path><path d="M438.72 271.13C490.98 219.87 520.01 191.39 525.82 185.69C525.82 185.69 525.82 185.69 525.82 185.69C551.94 211.32 566.46 225.56 569.36 228.41C569.36 228.41 569.36 228.41 569.36 228.41C517.11 279.68 488.07 308.16 482.27 313.85C482.27 313.85 482.27 313.85 482.27 313.85C456.14 288.22 441.62 273.98 438.72 271.13C438.72 271.13 438.72 271.13 438.72 271.13Z" id="f3rLlUofNb"></path><path d="M438.72 271.13C490.98 219.87 520.01 191.39 525.82 185.69C525.82 185.69 525.82 185.69 525.82 185.69C551.94 211.32 566.46 225.56 569.36 228.41C569.36 228.41 569.36 228.41 569.36 228.41C517.11 279.68 488.07 308.16 482.27 313.85C482.27 313.85 482.27 313.85 482.27 313.85C456.14 288.22 441.62 273.98 438.72 271.13C438.72 271.13 438.72 271.13 438.72 271.13Z" id="d3pWuL3qZ"></path><path d="M482.31 313.77C430.05 262.51 401.02 234.03 395.21 228.34C395.21 228.34 395.21 228.34 395.21 228.34C421.34 202.7 435.86 188.46 438.76 185.62C438.76 185.62 438.76 185.62 438.76 185.62C491.02 236.88 520.05 265.36 525.85 271.06C525.85 271.06 525.85 271.06 525.85 271.06C499.73 296.69 485.21 310.93 482.31 313.77C482.31 313.77 482.31 313.77 482.31 313.77Z" id="be8zEtez"></path><path d="M482.31 313.77C430.05 262.51 401.02 234.03 395.21 228.34C395.21 228.34 395.21 228.34 395.21 228.34C421.34 202.7 435.86 188.46 438.76 185.62C438.76 185.62 438.76 185.62 438.76 185.62C491.02 236.88 520.05 265.36 525.85 271.06C525.85 271.06 525.85 271.06 525.85 271.06C499.73 296.69 485.21 310.93 482.31 313.77C482.31 313.77 482.31 313.77 482.31 313.77Z" id="aoFmcCRiA"></path><path d="M438.69 313.09C490.95 261.82 519.98 233.34 525.79 227.65C525.79 227.65 525.79 227.65 525.79 227.65C551.91 253.28 566.43 267.52 569.33 270.37C569.33 270.37 569.33 270.37 569.33 270.37C517.08 321.63 488.05 350.11 482.24 355.81C482.24 355.81 482.24 355.81 482.24 355.81C456.11 330.18 441.6 315.94 438.69 313.09C438.69 313.09 438.69 313.09 438.69 313.09Z" id="aEjNXYeHV"></path><path d="M438.69 313.09C490.95 261.82 519.98 233.34 525.79 227.65C525.79 227.65 525.79 227.65 525.79 227.65C551.91 253.28 566.43 267.52 569.33 270.37C569.33 270.37 569.33 270.37 569.33 270.37C517.08 321.63 488.05 350.11 482.24 355.81C482.24 355.81 482.24 355.81 482.24 355.81C456.11 330.18 441.6 315.94 438.69 313.09C438.69 313.09 438.69 313.09 438.69 313.09Z" id="bfpOBiSuU"></path><path d="M482.34 355.73C430.08 304.47 401.05 275.99 395.24 270.29C395.24 270.29 395.24 270.29 395.24 270.29C421.37 244.66 435.89 230.42 438.79 227.57C438.79 227.57 438.79 227.57 438.79 227.57C491.04 278.84 520.08 307.32 525.88 313.01C525.88 313.01 525.88 313.01 525.88 313.01C499.75 338.64 485.24 352.88 482.34 355.73C482.34 355.73 482.34 355.73 482.34 355.73Z" id="dmum6pP4S"></path><path d="M482.34 355.73C430.08 304.47 401.05 275.99 395.24 270.29C395.24 270.29 395.24 270.29 395.24 270.29C421.37 244.66 435.89 230.42 438.79 227.57C438.79 227.57 438.79 227.57 438.79 227.57C491.04 278.84 520.08 307.32 525.88 313.01C525.88 313.01 525.88 313.01 525.88 313.01C499.75 338.64 485.24 352.88 482.34 355.73C482.34 355.73 482.34 355.73 482.34 355.73Z" id="i2vq5jXWSO"></path><path d="M438.67 312.89L438.67 271L395.15 228.31L395.15 270.2L438.67 312.89Z" id="b2c0W5pbWq"></path><path d="M438.67 312.89L438.67 271L395.15 228.31L395.15 270.2L438.67 312.89Z" id="fSLyxQu5E"></path><path d="M438.67 312.89L438.67 271L482.19 313.7L482.19 355.78L438.67 312.89Z" id="c2jRgcPxGv"></path><path d="M438.67 312.89L438.67 271L482.19 313.7L482.19 355.78L438.67 312.89Z" id="a6TEZjrMRI"></path><path d="M525.71 312.89L525.71 271L569.44 228.31L569.44 270.2L525.71 312.89Z" id="jEQKDqxvZ"></path><path d="M525.71 312.89L525.71 271L569.44 228.31L569.44 270.2L525.71 312.89Z" id="k1i1LcZKm"></path><path d="M525.71 312.89L482.19 355.78L482.19 313.7L525.71 271L525.71 312.89Z" id="cDF89JrOl"></path><path d="M525.71 312.89L482.19 355.78L482.19 313.7L525.71 271L525.71 312.89Z" id="aPk8e8uOR"></path><path d="M438.67 185.62L438.67 227.5" id="a96zQlKVC3"></path><path d="M438.67 185.62L438.67 227.5" id="b18PbgVeY4"></path><path d="M525.71 185.62L525.71 227.5" id="hEnoH8fHj"></path><path d="M525.71 185.62L525.71 227.5" id="aBPs5Imkz"></path><path d="M482.19 228.11L482.19 270.4" id="a14AlymQYT"></path><path d="M482.19 228.11L482.19 270.4" id="a5wTmGWSA3"></path></defs><g><g><use xlink:href="#e2EMvej1RW" opacity="1" fill="#ffffff" fill-opacity="0"></use><g><use xlink:href="#e2EMvej1RW" opacity="1" fill-opacity="0" stroke="#090000" stroke-width="2" stroke-opacity="0.8"></use></g></g><g><use xlink:href="#k24S4m1eio" opacity="1" fill="#ffffff" fill-opacity="0"></use><g><use xlink:href="#k24S4m1eio" opacity="1" fill-opacity="0" stroke="#090000" stroke-width="2" stroke-opacity="0.8"></use></g></g><g><use xlink:href="#afW0u3k3f" opacity="1" fill="#ffffff" fill-opacity="0"></use><g><use xlink:href="#afW0u3k3f" opacity="1" fill-opacity="0" stroke="#090000" stroke-width="2" stroke-opacity="0.8"></use></g></g><g><use xlink:href="#a24Tg8hhPm" opacity="1" fill="#ffffff" fill-opacity="0"></use><g><use xlink:href="#a24Tg8hhPm" opacity="1" fill-opacity="0" stroke="#090000" stroke-width="2" stroke-opacity="0.8"></use></g></g><g><use xlink:href="#ge84G6jtY" opacity="1" fill="#ffffff" fill-opacity="0"></use><g><use xlink:href="#ge84G6jtY" opacity="1" fill-opacity="0" stroke="#090000" stroke-width="2" stroke-opacity="0.8"></use></g></g><g><use xlink:href="#a1ddP7wpmG" opacity="1" fill="#ffffff" fill-opacity="0"></use><g><use xlink:href="#a1ddP7wpmG" opacity="1" fill-opacity="0" stroke="#090000" stroke-width="2" stroke-opacity="0.8"></use></g></g><g><use xlink:href="#cYiAlGBIi" opacity="1" fill="#ffffff" fill-opacity="0"></use><g><use xlink:href="#cYiAlGBIi" opacity="1" fill-opacity="0" stroke="#090000" stroke-width="2" stroke-opacity="0.8"></use></g></g><g><use xlink:href="#f3rLlUofNb" opacity="1" fill="#000000" fill-opacity="0"></use><g><use xlink:href="#f3rLlUofNb" opacity="1" fill-opacity="0" stroke="#000000" stroke-width="1" stroke-opacity="0"></use></g></g><g><use xlink:href="#d3pWuL3qZ" opacity="1" fill="#000000" fill-opacity="0"></use><g><use xlink:href="#d3pWuL3qZ" opacity="1" fill-opacity="0" stroke="#000000" stroke-width="2" stroke-opacity="0.62"></use></g></g><g><use xlink:href="#be8zEtez" opacity="1" fill="#000000" fill-opacity="0"></use><g><use xlink:href="#be8zEtez" opacity="1" fill-opacity="0" stroke="#000000" stroke-width="1" stroke-opacity="0"></use></g></g><g><use xlink:href="#aoFmcCRiA" opacity="1" fill="#000000" fill-opacity="0"></use><g><use xlink:href="#aoFmcCRiA" opacity="1" fill-opacity="0" stroke="#000000" stroke-width="2" stroke-opacity="0.62"></use></g></g><g><use xlink:href="#aEjNXYeHV" opacity="1" fill="#000000" fill-opacity="0"></use><g><use xlink:href="#aEjNXYeHV" opacity="1" fill-opacity="0" stroke="#000000" stroke-width="1" stroke-opacity="0"></use></g></g><g><use xlink:href="#bfpOBiSuU" opacity="1" fill="#000000" fill-opacity="0"></use><g><use xlink:href="#bfpOBiSuU" opacity="1" fill-opacity="0" stroke="#000000" stroke-width="2" stroke-opacity="0.62"></use></g></g><g><use xlink:href="#dmum6pP4S" opacity="1" fill="#000000" fill-opacity="0"></use><g><use xlink:href="#dmum6pP4S" opacity="1" fill-opacity="0" stroke="#000000" stroke-width="1" stroke-opacity="0"></use></g></g><g><use xlink:href="#i2vq5jXWSO" opacity="1" fill="#000000" fill-opacity="0"></use><g><use xlink:href="#i2vq5jXWSO" opacity="1" fill-opacity="0" stroke="#000000" stroke-width="2" stroke-opacity="0.62"></use></g></g><g><use xlink:href="#b2c0W5pbWq" opacity="1" fill="#000000" fill-opacity="0"></use><g><use xlink:href="#b2c0W5pbWq" opacity="1" fill-opacity="0" stroke="#000000" stroke-width="1" stroke-opacity="0"></use></g></g><g><use xlink:href="#fSLyxQu5E" opacity="1" fill="#000000" fill-opacity="0"></use><g><use xlink:href="#fSLyxQu5E" opacity="1" fill-opacity="0" stroke="#000000" stroke-width="2" stroke-opacity="0.62"></use></g></g><g><use xlink:href="#c2jRgcPxGv" opacity="1" fill="#000000" fill-opacity="0"></use><g><use xlink:href="#c2jRgcPxGv" opacity="1" fill-opacity="0" stroke="#000000" stroke-width="1" stroke-opacity="0"></use></g></g><g><use xlink:href="#a6TEZjrMRI" opacity="1" fill="#000000" fill-opacity="0"></use><g><use xlink:href="#a6TEZjrMRI" opacity="1" fill-opacity="0" stroke="#000000" stroke-width="2" stroke-opacity="0.62"></use></g></g><g><use xlink:href="#jEQKDqxvZ" opacity="1" fill="#000000" fill-opacity="0"></use><g><use xlink:href="#jEQKDqxvZ" opacity="1" fill-opacity="0" stroke="#000000" stroke-width="1" stroke-opacity="0"></use></g></g><g><use xlink:href="#k1i1LcZKm" opacity="1" fill="#000000" fill-opacity="0"></use><g><use xlink:href="#k1i1LcZKm" opacity="1" fill-opacity="0" stroke="#000000" stroke-width="2" stroke-opacity="0.62"></use></g></g><g><use xlink:href="#cDF89JrOl" opacity="1" fill="#000000" fill-opacity="0"></use><g><use xlink:href="#cDF89JrOl" opacity="1" fill-opacity="0" stroke="#000000" stroke-width="1" stroke-opacity="0"></use></g></g><g><use xlink:href="#aPk8e8uOR" opacity="1" fill="#000000" fill-opacity="0"></use><g><use xlink:href="#aPk8e8uOR" opacity="1" fill-opacity="0" stroke="#000000" stroke-width="2" stroke-opacity="0.62"></use></g></g><g><use xlink:href="#a96zQlKVC3" opacity="1" fill="#000000" fill-opacity="0"></use><g><use xlink:href="#a96zQlKVC3" opacity="1" fill-opacity="0" stroke="#000000" stroke-width="1" stroke-opacity="0"></use></g></g><g><use xlink:href="#b18PbgVeY4" opacity="1" fill="#000000" fill-opacity="0"></use><g><use xlink:href="#b18PbgVeY4" opacity="1" fill-opacity="0" stroke="#000000" stroke-width="2" stroke-opacity="0.62"></use></g></g><g><use xlink:href="#hEnoH8fHj" opacity="1" fill="#000000" fill-opacity="0"></use><g><use xlink:href="#hEnoH8fHj" opacity="1" fill-opacity="0" stroke="#000000" stroke-width="1" stroke-opacity="0"></use></g></g><g><use xlink:href="#aBPs5Imkz" opacity="1" fill="#000000" fill-opacity="0"></use><g><use xlink:href="#aBPs5Imkz" opacity="1" fill-opacity="0" stroke="#000000" stroke-width="2" stroke-opacity="0.62"></use></g></g><g><use xlink:href="#a14AlymQYT" opacity="1" fill="#000000" fill-opacity="0"></use><g><use xlink:href="#a14AlymQYT" opacity="1" fill-opacity="0" stroke="#000000" stroke-width="1" stroke-opacity="0"></use></g></g><g><use xlink:href="#a5wTmGWSA3" opacity="1" fill="#000000" fill-opacity="0"></use><g><use xlink:href="#a5wTmGWSA3" opacity="1" fill-opacity="0" stroke="#000000" stroke-width="2" stroke-opacity="0.62"></use></g></g></g></svg>
