<?xml version="1.0" encoding="UTF-8" standalone="no"?>
<!DOCTYPE svg PUBLIC "-//W3C//DTD SVG 1.1//EN" "http://www.w3.org/Graphics/SVG/1.1/DTD/svg11.dtd">
<svg version="1.1" xmlns="http://www.w3.org/2000/svg" xmlns:xlink="http://www.w3.org/1999/xlink" preserveAspectRatio="xMidYMid meet" viewBox="0 0 640 640" width="640" height="640"><defs><path d="M322.24 113.08C333.43 104.18 340.62 90.46 340.62 75.05C340.62 48.22 318.87 26.48 292.05 26.48C265.23 26.48 243.48 48.22 243.48 75.05C243.48 95.49 256.12 112.97 274 120.14C286.5 107.98 305.78 104.5 322.24 113.08Z" id="a5wIvVK4qk"></path><path d="M-467.56 132.45C-477.74 132.45 -559.17 132.45 -569.35 132.45C-581.45 132.45 -593.29 135.97 -603.44 142.57C-607.22 145.04 -626.14 157.36 -660.19 179.54L-695.52 126.91C-685.55 106.61 -680 95.33 -678.9 93.07C-678.72 93.07 -678.54 93.09 -678.36 93.09C-666.61 93.09 -654.91 86.63 -649.14 74.88C-646.4 69.32 -624.56 24.87 -621.83 19.31C-618.45 12.44 -621.28 4.14 -628.15 0.77C-635.02 -2.61 -643.32 0.22 -646.69 7.09C-649.42 12.65 -671.27 57.11 -674 62.67C-675.19 65.08 -678.09 66.04 -680.46 64.87C-682.86 63.69 -683.84 60.79 -682.67 58.4C-679.94 52.84 -658.09 8.39 -655.36 2.83C-651.99 -4.04 -654.82 -12.34 -661.69 -15.71C-668.56 -19.09 -676.85 -16.26 -680.23 -9.39C-682.96 -3.83 -704.81 40.63 -707.54 46.18C-713.27 57.84 -711.35 71.29 -703.75 80.83C-705.42 84.23 -718.78 111.42 -720.45 114.82C-728.75 116.12 -736.7 121.69 -740.72 133C-742.63 138.35 -741.84 144.29 -738.67 149C-733.51 156.7 -692.15 218.31 -686.98 226.01C-682.34 232.92 -674.73 236.66 -666.98 236.66C-662.5 236.66 -657.97 235.41 -653.94 232.81C-650.1 230.33 -630.88 217.91 -596.3 195.57C-596.3 434.62 -596.29 567.42 -596.29 593.98C-596.29 616.08 -571.48 632.38 -548.2 616.55C-542.06 612.37 -538.52 605.31 -538.52 597.89C-538.52 582.24 -538.52 503.98 -538.52 363.12L-526.05 363.12C-526.05 503.98 -526.05 582.24 -526.05 597.89C-526.05 605.31 -522.51 612.37 -516.38 616.55C-493.09 632.38 -468.29 616.08 -468.29 593.98C-468.34 553.52 -468.75 229.86 -468.8 189.4C-468.8 186.63 -466.56 184.38 -463.79 184.37C-461.01 184.36 -458.75 186.59 -458.74 189.37C-458.65 207.05 -457.94 348.51 -457.85 366.2C-457.78 379.45 -447.02 390.14 -433.78 390.14C-433.74 390.14 -433.7 390.14 -433.66 390.14C-420.36 390.08 -409.64 379.25 -409.71 365.95C-409.77 354.17 -410.07 295.22 -410.6 189.13C-427.74 151.34 -446.73 132.45 -467.56 132.45Z" id="b5Ac04whF"></path><path d="M319.34 342.99C298.25 352.01 273.82 342.23 264.79 321.12C263.25 317.53 262.27 313.83 261.79 310.14C249.75 311.37 238.03 307.32 229.41 299.39C229.41 328.87 229.42 564.68 229.42 594.16C229.42 609.69 242.01 622.28 257.54 622.28C273.07 622.28 285.66 609.69 285.66 594.16C285.66 572.3 285.66 397.47 285.66 375.62C285.66 372.17 288.46 369.38 291.91 369.38C295.16 369.38 297.81 372.02 297.81 375.28C297.81 397.17 297.81 572.27 297.81 594.16C297.81 609.69 310.4 622.28 325.93 622.28C341.46 622.28 354.05 609.69 354.05 594.16C354.02 576.44 353.85 487.84 353.54 328.36C333.02 337.13 321.62 342.01 319.34 342.99Z" id="bjoBh9Sqw"></path><path d="M279.43 277.17C283.98 265.28 320.34 170.16 324.89 158.27C329.51 146.18 323.46 132.64 311.37 128.02C299.28 123.4 285.73 129.45 281.11 141.54C277.98 149.72 252.96 215.16 249.84 223.34C240.14 211.54 230.99 199.98 225.86 192.58C227.19 192.52 233.8 192.21 245.7 191.67C256.2 163.55 262.03 147.92 263.19 144.8C250 144.8 242.68 144.8 229.31 144.8C211.84 144.8 195.4 153.51 186.13 166.87C177.57 179.21 175.65 194.31 191.39 208.3C196.21 221.2 241.38 273.83 250.36 284.17C245.29 290.45 253.59 293.3 261.62 291.88C269.73 290.45 276.49 284.87 279.43 277.17Z" id="e1n0O7jxzZ"></path><path d="M410.21 199.91C410.02 169.51 385.16 144.8 354.76 144.8C353.71 144.8 345.29 144.8 344.24 144.8C345.06 151.34 344.33 158.16 341.82 164.74C337.58 175.84 310.3 247.19 306.06 258.27C309.23 256.91 325.05 250.14 353.54 237.96C353.54 215.51 353.54 203.05 353.54 200.55C353.54 197.9 355.64 195.73 358.29 195.64C360.94 195.56 363.18 197.59 363.35 200.24C363.35 200.24 363.35 200.24 363.35 200.24C363.65 248.4 363.49 222.87 363.68 253.33C355.44 256.85 300.87 280.2 293.78 283.23C281.77 288.37 276.44 302.28 281.45 313.99C286.55 325.9 300.33 331.41 312.22 326.32C320.64 322.72 388.01 293.9 396.43 290.3C405.11 286.59 410.71 278.03 410.65 268.6C410.64 266.31 410.57 254.88 410.43 234.29L410.22 199.95C410.21 199.93 410.21 199.92 410.21 199.91Z" id="c4V0oVENjI"></path><path d="M496.7 22.79C495.41 24.88 495.98 27.62 497.99 29.03C498.77 29.57 504.99 33.92 505.77 34.47C507.52 35.69 509.94 35.26 511.16 33.5C513.59 29.99 518.02 26.71 522.93 26.71C528.16 26.71 533.88 29.86 533.88 36.41C533.88 47.44 516.25 51.59 510.47 57.74C507.1 61.32 505.73 65.29 505.26 70.27C505.04 72.55 506.84 74.5 509.1 74.5C510.2 74.5 518.95 74.5 520.05 74.5C521.74 74.5 523.24 73.4 523.74 71.78C523.99 70.96 524.37 70.2 524.87 69.51C531.27 60.78 553.13 59.63 553.13 36.54C553.13 19.15 540.67 8.84 523.77 8.84C512.71 8.84 502.33 13.65 496.7 22.79Z" id="d2YWxIHBz"></path><path d="M514.7 83.69C509.25 83.69 504.83 88.11 504.83 93.56C504.83 99.01 509.25 103.43 514.7 103.43C520.15 103.43 524.57 99.01 524.57 93.56C524.57 88.11 520.15 83.69 514.7 83.69Z" id="c1SH8ZXkC9"></path><path d="M473.05 171.53C525.31 120.27 554.34 91.79 560.15 86.09C560.15 86.09 560.15 86.09 560.15 86.09C586.27 111.72 600.79 125.96 603.69 128.81C603.69 128.81 603.69 128.81 603.69 128.81C551.44 180.08 522.4 208.56 516.6 214.25C516.6 214.25 516.6 214.25 516.6 214.25C490.47 188.62 475.95 174.38 473.05 171.53C473.05 171.53 473.05 171.53 473.05 171.53Z" id="ayyQ1MyT0"></path><path d="M473.05 171.53C525.31 120.27 554.34 91.79 560.15 86.09C560.15 86.09 560.15 86.09 560.15 86.09C586.27 111.72 600.79 125.96 603.69 128.81C603.69 128.81 603.69 128.81 603.69 128.81C551.44 180.08 522.4 208.56 516.6 214.25C516.6 214.25 516.6 214.25 516.6 214.25C490.47 188.62 475.95 174.38 473.05 171.53C473.05 171.53 473.05 171.53 473.05 171.53Z" id="cfWCLrs1V"></path><path d="M516.64 214.17C464.38 162.91 435.35 134.43 429.54 128.74C429.54 128.74 429.54 128.74 429.54 128.74C455.67 103.1 470.19 88.86 473.09 86.02C473.09 86.02 473.09 86.02 473.09 86.02C525.35 137.28 554.38 165.76 560.18 171.46C560.18 171.46 560.18 171.46 560.18 171.46C534.06 197.09 519.54 211.33 516.64 214.17C516.64 214.17 516.64 214.17 516.64 214.17Z" id="b30mcRgpFl"></path><path d="M516.64 214.17C464.38 162.91 435.35 134.43 429.54 128.74C429.54 128.74 429.54 128.74 429.54 128.74C455.67 103.1 470.19 88.86 473.09 86.02C473.09 86.02 473.09 86.02 473.09 86.02C525.35 137.28 554.38 165.76 560.18 171.46C560.18 171.46 560.18 171.46 560.18 171.46C534.06 197.09 519.54 211.33 516.64 214.17C516.64 214.17 516.64 214.17 516.64 214.17Z" id="g2xcBYl7XV"></path><path d="M473.02 213.49C525.28 162.22 554.31 133.74 560.12 128.05C560.12 128.05 560.12 128.05 560.12 128.05C586.24 153.68 600.76 167.92 603.66 170.77C603.66 170.77 603.66 170.77 603.66 170.77C551.41 222.03 522.38 250.51 516.57 256.21C516.57 256.21 516.57 256.21 516.57 256.21C490.44 230.58 475.93 216.34 473.02 213.49C473.02 213.49 473.02 213.49 473.02 213.49Z" id="bcmJcRltC"></path><path d="M473.02 213.49C525.28 162.22 554.31 133.74 560.12 128.05C560.12 128.05 560.12 128.05 560.12 128.05C586.24 153.68 600.76 167.92 603.66 170.77C603.66 170.77 603.66 170.77 603.66 170.77C551.41 222.03 522.38 250.51 516.57 256.21C516.57 256.21 516.57 256.21 516.57 256.21C490.44 230.58 475.93 216.34 473.02 213.49C473.02 213.49 473.02 213.49 473.02 213.49Z" id="bACkTv5NK"></path><path d="M516.67 256.13C464.41 204.87 435.38 176.39 429.57 170.69C429.57 170.69 429.57 170.69 429.57 170.69C455.7 145.06 470.22 130.82 473.12 127.97C473.12 127.97 473.12 127.97 473.12 127.97C525.37 179.24 554.41 207.72 560.21 213.41C560.21 213.41 560.21 213.41 560.21 213.41C534.08 239.04 519.57 253.28 516.67 256.13C516.67 256.13 516.67 256.13 516.67 256.13Z" id="b2HX2VQuu"></path><path d="M516.67 256.13C464.41 204.87 435.38 176.39 429.57 170.69C429.57 170.69 429.57 170.69 429.57 170.69C455.7 145.06 470.22 130.82 473.12 127.97C473.12 127.97 473.12 127.97 473.12 127.97C525.37 179.24 554.41 207.72 560.21 213.41C560.21 213.41 560.21 213.41 560.21 213.41C534.08 239.04 519.57 253.28 516.67 256.13C516.67 256.13 516.67 256.13 516.67 256.13Z" id="b1c1PBAlRM"></path><path d="M473 213.29L473 171.4L429.48 128.71L429.48 170.6L473 213.29Z" id="cFEybekzJ"></path><path d="M473 213.29L473 171.4L429.48 128.71L429.48 170.6L473 213.29Z" id="dyG26b3n"></path><path d="M473 213.29L473 171.4L516.52 214.1L516.52 256.18L473 213.29Z" id="bmXwdPjfr"></path><path d="M473 213.29L473 171.4L516.52 214.1L516.52 256.18L473 213.29Z" id="a2eJYylEUL"></path><path d="M560.04 213.29L560.04 171.4L603.77 128.71L603.77 170.6L560.04 213.29Z" id="ajFPNohqp"></path><path d="M560.04 213.29L560.04 171.4L603.77 128.71L603.77 170.6L560.04 213.29Z" id="e43Xa5khA"></path><path d="M560.04 213.29L516.52 256.18L516.52 214.1L560.04 171.4L560.04 213.29Z" id="ajFywDeT0"></path><path d="M560.04 213.29L516.52 256.18L516.52 214.1L560.04 171.4L560.04 213.29Z" id="ibqg8sHch9"></path><path d="M473 86.02L473 127.9" id="b1hsPpSpxM"></path><path d="M473 86.02L473 127.9" id="a6ygonigDd"></path><path d="M560.04 86.02L560.04 127.9" id="b16b0Wwcha"></path><path d="M560.04 86.02L560.04 127.9" id="a1FK0dWz5"></path><path d="M516.52 128.51L516.52 170.8" id="bf8nLw48L"></path><path d="M516.52 128.51L516.52 170.8" id="d9KUAuc9W"></path></defs><g><g><g><use xlink:href="#a5wIvVK4qk" opacity="1" fill="#ffffff" fill-opacity="0"></use><g><use xlink:href="#a5wIvVK4qk" opacity="1" fill-opacity="0" stroke="#090101" stroke-width="2" stroke-opacity="0.8"></use></g></g><g><use xlink:href="#b5Ac04whF" opacity="1" fill="#ffffff" fill-opacity="0"></use><g><use xlink:href="#b5Ac04whF" opacity="1" fill-opacity="0" stroke="#090101" stroke-width="2" stroke-opacity="0.8"></use></g></g><g><use xlink:href="#bjoBh9Sqw" opacity="1" fill="#ffffff" fill-opacity="0"></use><g><use xlink:href="#bjoBh9Sqw" opacity="1" fill-opacity="0" stroke="#090101" stroke-width="2" stroke-opacity="0.8"></use></g></g><g><use xlink:href="#e1n0O7jxzZ" opacity="1" fill="#ffffff" fill-opacity="0"></use><g><use xlink:href="#e1n0O7jxzZ" opacity="1" fill-opacity="0" stroke="#090101" stroke-width="2" stroke-opacity="0.8"></use></g></g><g><use xlink:href="#c4V0oVENjI" opacity="1" fill="#ffffff" fill-opacity="0"></use><g><use xlink:href="#c4V0oVENjI" opacity="1" fill-opacity="0" stroke="#090101" stroke-width="2" stroke-opacity="0.8"></use></g></g><g><use xlink:href="#d2YWxIHBz" opacity="1" fill="#ffffff" fill-opacity="0"></use><g><use xlink:href="#d2YWxIHBz" opacity="1" fill-opacity="0" stroke="#090101" stroke-width="2" stroke-opacity="0.8"></use></g></g><g><use xlink:href="#c1SH8ZXkC9" opacity="1" fill="#ffffff" fill-opacity="0"></use><g><use xlink:href="#c1SH8ZXkC9" opacity="1" fill-opacity="0" stroke="#090101" stroke-width="2" stroke-opacity="0.8"></use></g></g><g><use xlink:href="#ayyQ1MyT0" opacity="1" fill="#000000" fill-opacity="0"></use><g><use xlink:href="#ayyQ1MyT0" opacity="1" fill-opacity="0" stroke="#000000" stroke-width="1" stroke-opacity="0"></use></g></g><g><use xlink:href="#cfWCLrs1V" opacity="1" fill="#000000" fill-opacity="0"></use><g><use xlink:href="#cfWCLrs1V" opacity="1" fill-opacity="0" stroke="#000000" stroke-width="2" stroke-opacity="0.62"></use></g></g><g><use xlink:href="#b30mcRgpFl" opacity="1" fill="#000000" fill-opacity="0"></use><g><use xlink:href="#b30mcRgpFl" opacity="1" fill-opacity="0" stroke="#000000" stroke-width="1" stroke-opacity="0"></use></g></g><g><use xlink:href="#g2xcBYl7XV" opacity="1" fill="#000000" fill-opacity="0"></use><g><use xlink:href="#g2xcBYl7XV" opacity="1" fill-opacity="0" stroke="#000000" stroke-width="2" stroke-opacity="0.62"></use></g></g><g><use xlink:href="#bcmJcRltC" opacity="1" fill="#000000" fill-opacity="0"></use><g><use xlink:href="#bcmJcRltC" opacity="1" fill-opacity="0" stroke="#000000" stroke-width="1" stroke-opacity="0"></use></g></g><g><use xlink:href="#bACkTv5NK" opacity="1" fill="#000000" fill-opacity="0"></use><g><use xlink:href="#bACkTv5NK" opacity="1" fill-opacity="0" stroke="#000000" stroke-width="2" stroke-opacity="0.62"></use></g></g><g><use xlink:href="#b2HX2VQuu" opacity="1" fill="#000000" fill-opacity="0"></use><g><use xlink:href="#b2HX2VQuu" opacity="1" fill-opacity="0" stroke="#000000" stroke-width="1" stroke-opacity="0"></use></g></g><g><use xlink:href="#b1c1PBAlRM" opacity="1" fill="#000000" fill-opacity="0"></use><g><use xlink:href="#b1c1PBAlRM" opacity="1" fill-opacity="0" stroke="#000000" stroke-width="2" stroke-opacity="0.62"></use></g></g><g><use xlink:href="#cFEybekzJ" opacity="1" fill="#000000" fill-opacity="0"></use><g><use xlink:href="#cFEybekzJ" opacity="1" fill-opacity="0" stroke="#000000" stroke-width="1" stroke-opacity="0"></use></g></g><g><use xlink:href="#dyG26b3n" opacity="1" fill="#000000" fill-opacity="0"></use><g><use xlink:href="#dyG26b3n" opacity="1" fill-opacity="0" stroke="#000000" stroke-width="2" stroke-opacity="0.62"></use></g></g><g><use xlink:href="#bmXwdPjfr" opacity="1" fill="#000000" fill-opacity="0"></use><g><use xlink:href="#bmXwdPjfr" opacity="1" fill-opacity="0" stroke="#000000" stroke-width="1" stroke-opacity="0"></use></g></g><g><use xlink:href="#a2eJYylEUL" opacity="1" fill="#000000" fill-opacity="0"></use><g><use xlink:href="#a2eJYylEUL" opacity="1" fill-opacity="0" stroke="#000000" stroke-width="2" stroke-opacity="0.62"></use></g></g><g><use xlink:href="#ajFPNohqp" opacity="1" fill="#000000" fill-opacity="0"></use><g><use xlink:href="#ajFPNohqp" opacity="1" fill-opacity="0" stroke="#000000" stroke-width="1" stroke-opacity="0"></use></g></g><g><use xlink:href="#e43Xa5khA" opacity="1" fill="#000000" fill-opacity="0"></use><g><use xlink:href="#e43Xa5khA" opacity="1" fill-opacity="0" stroke="#000000" stroke-width="2" stroke-opacity="0.62"></use></g></g><g><use xlink:href="#ajFywDeT0" opacity="1" fill="#000000" fill-opacity="0"></use><g><use xlink:href="#ajFywDeT0" opacity="1" fill-opacity="0" stroke="#000000" stroke-width="1" stroke-opacity="0"></use></g></g><g><use xlink:href="#ibqg8sHch9" opacity="1" fill="#000000" fill-opacity="0"></use><g><use xlink:href="#ibqg8sHch9" opacity="1" fill-opacity="0" stroke="#000000" stroke-width="2" stroke-opacity="0.62"></use></g></g><g><use xlink:href="#b1hsPpSpxM" opacity="1" fill="#000000" fill-opacity="0"></use><g><use xlink:href="#b1hsPpSpxM" opacity="1" fill-opacity="0" stroke="#000000" stroke-width="1" stroke-opacity="0"></use></g></g><g><use xlink:href="#a6ygonigDd" opacity="1" fill="#000000" fill-opacity="0"></use><g><use xlink:href="#a6ygonigDd" opacity="1" fill-opacity="0" stroke="#000000" stroke-width="2" stroke-opacity="0.62"></use></g></g><g><use xlink:href="#b16b0Wwcha" opacity="1" fill="#000000" fill-opacity="0"></use><g><use xlink:href="#b16b0Wwcha" opacity="1" fill-opacity="0" stroke="#000000" stroke-width="1" stroke-opacity="0"></use></g></g><g><use xlink:href="#a1FK0dWz5" opacity="1" fill="#000000" fill-opacity="0"></use><g><use xlink:href="#a1FK0dWz5" opacity="1" fill-opacity="0" stroke="#000000" stroke-width="2" stroke-opacity="0.62"></use></g></g><g><use xlink:href="#bf8nLw48L" opacity="1" fill="#000000" fill-opacity="0"></use><g><use xlink:href="#bf8nLw48L" opacity="1" fill-opacity="0" stroke="#000000" stroke-width="1" stroke-opacity="0"></use></g></g><g><use xlink:href="#d9KUAuc9W" opacity="1" fill="#000000" fill-opacity="0"></use><g><use xlink:href="#d9KUAuc9W" opacity="1" fill-opacity="0" stroke="#000000" stroke-width="2" stroke-opacity="0.62"></use></g></g></g></g></svg>